<mxfile host="www.draw.io" modified="2019-11-09T18:39:03.669Z" agent="Mozilla/5.0 (Macintosh; Intel Mac OS X 10_14_6) AppleWebKit/537.36 (KHTML, like Gecko) Chrome/77.0.3865.120 Safari/537.36" etag="TIhK1jVi_-iC1MkePJny" version="12.2.3" type="github" pages="1">
  <diagram id="qPGbrPUS6d0gx5EdMcBU" name="Page-1">
    <mxGraphModel dx="1172" dy="653" grid="1" gridSize="10" guides="1" tooltips="1" connect="1" arrows="1" fold="1" page="1" pageScale="1" pageWidth="1169" pageHeight="827" background="#ffffff" math="0" shadow="0">
      <root>
        <mxCell id="0"/>
        <mxCell id="1" parent="0"/>
        <mxCell id="340A8npzHvRlRxg66V1w-7" value="&lt;br&gt;&lt;br&gt;&lt;br&gt;&lt;br&gt;&lt;br&gt;&lt;br&gt;&lt;br&gt;&lt;br&gt;&lt;br&gt;&lt;br&gt;&lt;br&gt;&lt;br&gt;&lt;br&gt;&lt;br&gt;&lt;br&gt;&lt;br&gt;&lt;br&gt;&lt;br&gt;&lt;br&gt;&lt;br&gt;&lt;br&gt;&lt;br&gt;&lt;br&gt;&lt;br&gt;&lt;br&gt;&amp;nbsp;Single Resource group" style="shape=ext;double=0;rounded=0;whiteSpace=wrap;html=1;dashed=1;fillColor=none;strokeWidth=1;perimeterSpacing=2;dashPattern=1 4;" parent="1" vertex="1">
          <mxGeometry x="327" y="180" width="483" height="333" as="geometry"/>
        </mxCell>
        <mxCell id="340A8npzHvRlRxg66V1w-17" value="" style="shape=ext;double=0;rounded=0;whiteSpace=wrap;html=1;dashed=1;fillColor=none;" parent="1" vertex="1">
          <mxGeometry x="340" y="290" width="111" height="170" as="geometry"/>
        </mxCell>
        <mxCell id="340A8npzHvRlRxg66V1w-71" value="" style="shape=image;verticalLabelPosition=bottom;labelBackgroundColor=#ffffff;verticalAlign=top;aspect=fixed;imageAspect=0;image=data:image/svg+xml,PHN2ZyB4bWxucz0iaHR0cDovL3d3dy53My5vcmcvMjAwMC9zdmciIHhtbG5zOnhsaW5rPSJodHRwOi8vd3d3LnczLm9yZy8xOTk5L3hsaW5rIiB2ZXJzaW9uPSIxLjAiIHg9IjBweCIgeT0iMHB4IiB2aWV3Qm94PSIwIDAgMTUyIDExNy41IiBlbmFibGUtYmFja2dyb3VuZD0ibmV3IDAgMCAxNTIgMTE3LjUiIHhtbDpzcGFjZT0icHJlc2VydmUiPiYjeGE7PGcgaWQ9IkxheWVyXzEiPiYjeGE7CTxnIGlkPSJBenVyZSI+JiN4YTsJPC9nPiYjeGE7CTxnIGlkPSJCaXpUYWxrX1NlcnZpY2VzIiB0cmFuc2Zvcm09InRyYW5zbGF0ZSgzNy4zNTc1LC0yNTAwLjIpIj4mI3hhOwk8L2c+JiN4YTs8L2c+JiN4YTs8ZyBpZD0icGF0aHMiPiYjeGE7CTxnIGlkPSJBY2Nlc3NfY29udHJvbCI+JiN4YTsJPC9nPiYjeGE7CTxnIGlkPSJBenVyZV9hY3RpdmVfZGlyZWN0b3J5Ij4mI3hhOwk8L2c+JiN4YTsJPGcgaWQ9IkFQSV9NYW5hZ2VtZW50Ij4mI3hhOwk8L2c+JiN4YTsJPGcgaWQ9IkF6dXJlX2F1dG9tYXRpb24iPiYjeGE7CTwvZz4mI3hhOwk8ZyBpZD0iQXp1cmVfU1FMX2RhdGFiYXNlIj4mI3hhOwk8L2c+JiN4YTsJPGcgaWQ9IkF6dXJlX3N1YnNjcmlwdGlvbiI+JiN4YTsJPC9nPiYjeGE7CTxnIGlkPSJCYWNrdXBfc2VydmljZSI+JiN4YTsJPC9nPiYjeGE7CTxnIGlkPSJCaXRidWNrZXRfY29kZV9zb3VyY2UiPiYjeGE7CTwvZz4mI3hhOwk8ZyBpZD0iQXp1cmVfY2FjaGUiPiYjeGE7CTwvZz4mI3hhOwk8ZyBpZD0iQ29udGVudF9kZWxpdmVyeV9uZXR3b3JrX194MjhfQ0ROX3gyOV8iPiYjeGE7CTwvZz4mI3hhOwk8ZyBpZD0iQ2xvdWRfc2VydmljZSI+JiN4YTsJPC9nPiYjeGE7CTxnIGlkPSJDb2RlUGxleCI+JiN4YTsJPC9nPiYjeGE7CTxnIGlkPSJEcm9wYm94X2NvZGVfc291cmNlIj4mI3hhOwk8L2c+JiN4YTsJPGcgaWQ9IkV4cHJlc3Nfcm91dGUiPiYjeGE7CTwvZz4mI3hhOwk8ZyBpZD0iR2l0X3JlcG9zaXRvcnkiPiYjeGE7CTwvZz4mI3hhOwk8ZyBpZD0iR2l0SHViX2NvZGUiPiYjeGE7CTwvZz4mI3hhOwk8ZyBpZD0iSERfSW5zaWdodCI+JiN4YTsJPC9nPiYjeGE7CTxnIGlkPSJIZWFsdGhfbW9uaXRvcmluZyI+JiN4YTsJPC9nPiYjeGE7CTxnIGlkPSJIZWFsdGh5Ij4mI3hhOwkJPHBhdGggZmlsbD0iIzAwNzhENyIgZD0iTTkzLjIsNDQuMWMtNC00LjQtMTIuMy0yLjUtMTcuMSw0LjNjLTYuMS03LjMtMTMuMy04LjctMTcuMy00LjNDNDcuNSw1Ni4zLDcxLjYsNzMuOSw3Niw3NS45bDAsMCAgICBjMCwwLDAsMCwwLDBjMCwwLDAsMCwwLDBsMCwwQzgwLjQsNzMuOSwxMDQuNSw1Ni4zLDkzLjIsNDQuMXogTTg0LjgsNTIuM2wtOS42LDEyLjNMNjkuMSw1OGwtMC41LTAuNmMtMC4xLTAuMi0wLjEtMC40LDAtMC41ICAgIGwxLjYtMS41YzAuMS0wLjEsMC4yLTAuMSwwLjMtMC4xczAuMiwwLDAuMywwLjFsNC4zLDQuN2w3LjUtOS42YzAuMS0wLjEsMC4yLTAuMSwwLjMtMC4xYzAuMSwwLDAuMiwwLDAuMiwwLjFsMS43LDEuMyAgICBjMC4xLDAuMSwwLjEsMC4yLDAuMSwwLjNDODQuOSw1Mi4xLDg0LjksNTIuMiw4NC44LDUyLjN6Ii8+JiN4YTsJPC9nPiYjeGE7PC9nPiYjeGE7PC9zdmc+;fontSize=11;strokeWidth=8;" parent="1" vertex="1">
          <mxGeometry x="390" y="408" width="48" height="38" as="geometry"/>
        </mxCell>
        <mxCell id="340A8npzHvRlRxg66V1w-63" value="Key Vault" style="shape=ext;double=0;rounded=0;whiteSpace=wrap;html=1;dashed=1;fillColor=none;" parent="1" vertex="1">
          <mxGeometry x="477" y="193" width="93" height="93" as="geometry"/>
        </mxCell>
        <mxCell id="340A8npzHvRlRxg66V1w-40" value="" style="shape=ext;double=0;rounded=0;whiteSpace=wrap;html=1;dashed=1;fillColor=none;strokeColor=#7EA6E0;" parent="1" vertex="1">
          <mxGeometry x="477" y="293" width="320" height="170" as="geometry"/>
        </mxCell>
        <mxCell id="340A8npzHvRlRxg66V1w-38" style="edgeStyle=orthogonalEdgeStyle;rounded=0;orthogonalLoop=1;jettySize=auto;html=1;exitX=1;exitY=0.5;exitDx=0;exitDy=0;entryX=-0.067;entryY=0.65;entryDx=0;entryDy=0;entryPerimeter=0;startArrow=classic;startFill=1;endArrow=classic;endFill=1;" parent="1" source="340A8npzHvRlRxg66V1w-25" target="340A8npzHvRlRxg66V1w-6" edge="1">
          <mxGeometry relative="1" as="geometry">
            <mxPoint x="848" y="402" as="targetPoint"/>
          </mxGeometry>
        </mxCell>
        <mxCell id="340A8npzHvRlRxg66V1w-52" value="" style="shape=image;verticalLabelPosition=bottom;labelBackgroundColor=#ffffff;verticalAlign=top;aspect=fixed;imageAspect=0;image=data:image/svg+xml,PHN2ZyB4bWxucz0iaHR0cDovL3d3dy53My5vcmcvMjAwMC9zdmciIHhtbG5zOnhsaW5rPSJodHRwOi8vd3d3LnczLm9yZy8xOTk5L3hsaW5rIiB2ZXJzaW9uPSIxLjAiIHg9IjBweCIgeT0iMHB4IiB2aWV3Qm94PSIwIDAgODMuNCA4My40IiBlbmFibGUtYmFja2dyb3VuZD0ibmV3IDAgMCA4My40IDgzLjQiIHhtbDpzcGFjZT0icHJlc2VydmUiPiYjeGE7PGcgaWQ9IkxheWVyXzEiPiYjeGE7CTxnIGlkPSJGaWxlX3gyQ19fZ2VuZXJhbCI+JiN4YTsJCTx0aXRsZT5TaGVldC4xMDcxPC90aXRsZT4mI3hhOwk8L2c+JiN4YTsJPGcgaWQ9Ik1lc3NhZ2UiPiYjeGE7CTwvZz4mI3hhOwk8ZyBpZD0iTW9uaXRvciI+JiN4YTsJPC9nPiYjeGE7CTxnIGlkPSJNb25pdG9yX3J1bm5pbmdfYXBwcyI+JiN4YTsJPC9nPiYjeGE7CTxnIGlkPSJNb3VzZSI+JiN4YTsJPC9nPiYjeGE7CTxnIGlkPSJOZXR3b3JrX2NhcmQiPiYjeGE7CTwvZz4mI3hhOwk8ZyBpZD0iTm90X2FsbG93ZWQiPiYjeGE7CTwvZz4mI3hhOwk8ZyBpZD0iUGVyZm9ybWFuY2UiPiYjeGE7CTwvZz4mI3hhOwk8ZyBpZD0iUGhvbmUiPiYjeGE7CTwvZz4mI3hhOwk8ZyBpZD0iUGx1Z19hbmRfcGxheSI+JiN4YTsJPC9nPiYjeGE7CTxnIGlkPSJQb3dlcnNoZWxsX3NjcmlwdF9maWxlIj4mI3hhOwk8L2c+JiN4YTsJPGcgaWQ9IlByb3RvY29sX3N0YWNrIj4mI3hhOwk8L2c+JiN4YTsJPGcgaWQ9IlF1ZXVlX3gyQ19fZ2VuZXJhbCI+JiN4YTsJPC9nPiYjeGE7CTxnIGlkPSJSTVNfY29ubmVjdG9yIj4mI3hhOwk8L2c+JiN4YTsJPGcgaWQ9IlJvdXRlciI+JiN4YTsJPC9nPiYjeGE7CTxnIGlkPSJTY3JpcHRfZmlsZSI+JiN4YTsJPC9nPiYjeGE7CTxnIGlkPSJTZWN1cmVfdmlydHVhbF9tYWNoaW5lIj4mI3hhOwk8L2c+JiN4YTsJPGcgaWQ9IlNlcnZlcl9mYXJtIj4mI3hhOwk8L2c+JiN4YTsJPGcgaWQ9IlNlcnZlcl9yYWNrIj4mI3hhOwk8L2c+JiN4YTsJPGcgaWQ9IlNlcnZlcl94MkZfYmxhZGUiPiYjeGE7CTwvZz4mI3hhOwk8ZyBpZD0iU2V0dGluZ3MiPiYjeGE7CTwvZz4mI3hhOwk8ZyBpZD0iU2hhcmVkX2ZvbGRlciI+JiN4YTsJPC9nPiYjeGE7CTxnIGlkPSJTbWFydF9jYXJkIj4mI3hhOwk8L2c+JiN4YTsJPGcgaWQ9IlN0b3JhZ2UiPiYjeGE7CTwvZz4mI3hhOwk8ZyBpZD0iVGFibGVfMiI+JiN4YTsJPC9nPiYjeGE7CTxnIGlkPSJUYWJsZXQiPiYjeGE7CTwvZz4mI3hhOwk8ZyBpZD0iVG9vbCI+JiN4YTsJPC9nPiYjeGE7CTxnIGlkPSJUdW5uZWwiPiYjeGE7CQk8Zz4mI3hhOwkJCTxnIGlkPSJzaGFwZTIwNzYtMl8xXyIgdHJhbnNmb3JtPSJ0cmFuc2xhdGUoNy42NTMsLTcuMTA1NDNFLTAxNSkiPiYjeGE7CQkJCTx0aXRsZT5UdW5uZWwsIFN0cmFpZ2h0LjIwNjI8L3RpdGxlPiYjeGE7CQkJCTxwYXRoIGZpbGw9IiMyQTMyODIiIGQ9Ik02My43LDM1LjRIOC42YzEuNSwxLjUsMi41LDMuOCwyLjUsNi4zYzAsMi41LTEsNC44LTIuNSw2LjNoNTUuMmMyLjcsMCw1LTIuOCw1LTYuMyAgICAgIFM2Ni41LDM1LjQsNjMuNywzNS40eiIvPiYjeGE7CQkJPC9nPiYjeGE7CQkJPGcgaWQ9InNoYXBlMjA3Ny00XzFfIj4mI3hhOwkJCQk8dGl0bGU+VHVubmVsLCBTdHJhaWdodC4yMDYzPC90aXRsZT4mI3hhOwkJCQk8ZWxsaXBzZSBmaWxsPSIjMkEzMjgyIiBjeD0iMTIiIGN5PSI0MS43IiByeD0iNC45IiByeT0iNi4zIi8+JiN4YTsJCQk8L2c+JiN4YTsJCTwvZz4mI3hhOwk8L2c+JiN4YTs8L2c+JiN4YTs8ZyBpZD0icGF0aHMiPiYjeGE7CTxnIGlkPSJBY2Nlc3NfY29udHJvbCI+JiN4YTsJPC9nPiYjeGE7CTxnIGlkPSJBenVyZV9hY3RpdmVfZGlyZWN0b3J5Ij4mI3hhOwk8L2c+JiN4YTsJPGcgaWQ9IkdlbmVyaWNfY29kZSI+JiN4YTsJPC9nPiYjeGE7CTxnIGlkPSJMYXB0b3AiPiYjeGE7CTwvZz4mI3hhOwk8ZyBpZD0iTG9hZF9iYWxhbmNlciI+JiN4YTsJPC9nPiYjeGE7CTxnIGlkPSJMb2NrX3gyQ19fcHJvdGVjdGVkIj4mI3hhOwk8L2c+JiN4YTs8L2c+JiN4YTs8ZyBpZD0ic3ltYm9scyI+JiN4YTs8L2c+JiN4YTs8ZyBpZD0ic2xpY2VzIj4mI3hhOzwvZz4mI3hhOzwvc3ZnPg==;" parent="1" vertex="1">
          <mxGeometry x="822" y="299" width="147" height="147" as="geometry"/>
        </mxCell>
        <mxCell id="340A8npzHvRlRxg66V1w-13" value="" style="shape=ext;double=0;rounded=0;whiteSpace=wrap;html=1;dashed=1;fillColor=none;strokeColor=#007FFF;" parent="1" vertex="1">
          <mxGeometry x="501" y="323" width="116" height="96" as="geometry"/>
        </mxCell>
        <mxCell id="340A8npzHvRlRxg66V1w-41" value="" style="shape=ext;double=0;rounded=0;whiteSpace=wrap;html=1;dashed=1;fillColor=none;strokeColor=#007FFF;fixDash=1;" parent="1" vertex="1">
          <mxGeometry x="674" y="313" width="93" height="103" as="geometry"/>
        </mxCell>
        <mxCell id="340A8npzHvRlRxg66V1w-25" value="" style="shape=ext;double=0;rounded=0;whiteSpace=wrap;html=1;dashed=1;strokeColor=#007FFF;" parent="1" vertex="1">
          <mxGeometry x="664" y="322" width="93" height="103" as="geometry"/>
        </mxCell>
        <mxCell id="340A8npzHvRlRxg66V1w-3" value="" style="verticalLabelPosition=bottom;html=1;verticalAlign=top;align=center;strokeColor=none;fillColor=#00BEF2;shape=mxgraph.azure.azure_load_balancer;" parent="1" vertex="1">
          <mxGeometry x="370.5" y="299" width="50" height="35" as="geometry"/>
        </mxCell>
        <mxCell id="340A8npzHvRlRxg66V1w-4" value="VNET" style="verticalLabelPosition=bottom;html=1;verticalAlign=top;align=center;strokeColor=none;fillColor=#00BEF2;shape=mxgraph.azure.virtual_network;pointerEvents=1;" parent="1" vertex="1">
          <mxGeometry x="797" y="504" width="30" height="18" as="geometry"/>
        </mxCell>
        <mxCell id="340A8npzHvRlRxg66V1w-10" value="" style="edgeStyle=orthogonalEdgeStyle;rounded=0;orthogonalLoop=1;jettySize=auto;html=1;strokeColor=none;" parent="1" target="340A8npzHvRlRxg66V1w-7" edge="1">
          <mxGeometry relative="1" as="geometry">
            <mxPoint x="847" y="390" as="sourcePoint"/>
          </mxGeometry>
        </mxCell>
        <mxCell id="340A8npzHvRlRxg66V1w-6" value="&lt;br&gt;Enterprise" style="verticalLabelPosition=bottom;html=1;verticalAlign=top;align=center;strokeColor=none;fillColor=#00BEF2;shape=mxgraph.azure.enterprise;pointerEvents=1;" parent="1" vertex="1">
          <mxGeometry x="977" y="339.5" width="30" height="50" as="geometry"/>
        </mxCell>
        <mxCell id="340A8npzHvRlRxg66V1w-14" value="APIM subnet" style="verticalLabelPosition=bottom;html=1;verticalAlign=top;align=center;strokeColor=none;fillColor=#00BEF2;shape=mxgraph.azure.virtual_network;pointerEvents=1;" parent="1" vertex="1">
          <mxGeometry x="613" y="414.5" width="30" height="18" as="geometry"/>
        </mxCell>
        <mxCell id="340A8npzHvRlRxg66V1w-18" value="APP GW subnet" style="verticalLabelPosition=bottom;html=1;verticalAlign=top;align=center;strokeColor=none;fillColor=#00BEF2;shape=mxgraph.azure.virtual_network;pointerEvents=1;" parent="1" vertex="1">
          <mxGeometry x="430" y="451" width="30" height="18" as="geometry"/>
        </mxCell>
        <mxCell id="340A8npzHvRlRxg66V1w-19" value="&#xa;APIM hostname&#xa;e.g. dev.apim.com" style="shape=image;imageAspect=0;aspect=fixed;verticalLabelPosition=bottom;verticalAlign=top;strokeColor=#000000;fillColor=#ffffff;image=data:image/svg+xml,PHN2ZyB4bWxucz0iaHR0cDovL3d3dy53My5vcmcvMjAwMC9zdmciIHhtbG5zOnhsaW5rPSJodHRwOi8vd3d3LnczLm9yZy8xOTk5L3hsaW5rIiB2ZXJzaW9uPSIxLjEiIGlkPSJMYXllcl8xIiB4PSIwcHgiIHk9IjBweCIgd2lkdGg9IjUwcHgiIGhlaWdodD0iNTBweCIgdmlld0JveD0iLTM3NCA2MTYgNTAgNTAiIGVuYWJsZS1iYWNrZ3JvdW5kPSJuZXcgLTM3NCA2MTYgNTAgNTAiIHhtbDpzcGFjZT0icHJlc2VydmUiPiYjeGE7PGNpcmNsZSBmaWxsPSIjMDA3MkM2IiBjeD0iLTM0OSIgY3k9IjY0MSIgcj0iMjUiLz4mI3hhOzxwYXRoIG9wYWNpdHk9IjAuMiIgZmlsbD0iI0ZGRkZGRiIgZD0iTS0zNjYuNjc4LDY1OC42NzhjLTkuNzYzLTkuNzYzLTkuNzYzLTI1LjU5MiwwLTM1LjM1NWM5Ljc2My05Ljc2MywyNS41OTItOS43NjMsMzUuMzU1LDAgIEwtMzY2LjY3OCw2NTguNjc4eiIvPiYjeGE7PHBhdGggb3BhY2l0eT0iMC44IiBmaWxsPSIjRkZGRkZGIiBkPSJNLTMyNiw2NDAuOTk2YzAtNS4xNTItMS43NDgtMTAuMTItNC45NjgtMTQuMTY4bDAsMGwtMC4xODQtMC4xODQgIGMtMC4wOTItMC4wOTItMC4wOTItMC4xODQtMC4xODQtMC4yNzZsLTEuNDcyLTEuNTY0bDAsMGMtNC4zMjQtNC40MTYtMTAuMDI4LTYuODA4LTE2LjE5Mi02LjgwOGMwLDAsMCwwLTAuMDkyLDBsMCwwaC0wLjA5MiAgYy02LjA3MiwwLjA5Mi0xMS42ODQsMi4zOTItMTYuMDA4LDYuNzE2bDAsMGwtMS41NjQsMS42NTZjLTAuMDkyLDAuMDkyLTAuMDkyLDAuMTg0LTAuMTg0LDAuMjc2bC0wLjE4NCwwLjA5MmwwLDAgIGMtMy4xMjgsNC4wNDgtNC44NzYsOS4xMDgtNC44NzYsMTQuMjZjMCw1LjE1MiwxLjc0OCwxMC4xMiw0Ljk2OCwxNC4xNjhsMCwwbDAuMTg0LDAuMTg0YzAuMDkyLDAuMDkyLDAuMDkyLDAuMTg0LDAuMTg0LDAuMjc2ICBsMS40NzIsMS41NjRsMCwwYzQuMzI0LDQuMzI0LDkuOTM2LDYuNzE2LDE2LjAwOCw2LjcxNmgwLjA5MmwwLDBjMCwwLDAsMCwwLjA5MiwwYzYuMDcyLDAsMTEuODY4LTIuMzkyLDE2LjE5Mi02LjcxNmwwLDAgIGwxLjQ3Mi0xLjY1NmMwLjA5Mi0wLjA5MiwwLjA5Mi0wLjE4NCwwLjE4NC0wLjI3NmwwLjE4NC0wLjE4NGwwLDBDLTMyNy43NDgsNjUxLjIwOC0zMjYsNjQ2LjE0OC0zMjYsNjQwLjk5NnogTS0zMzUuMjkyLDYyNiAgYy0wLjA5MiwwLTAuMTg0LDAuMDkyLTAuMjc2LDAuMDkyYy0wLjE4NCwwLjA5Mi0wLjM2OCwwLjE4NC0wLjQ2LDAuMTg0Yy0wLjM2OCwwLjE4NC0wLjgyOCwwLjI3Ni0xLjI4OCwwLjQ2ICBjLTAuMDkyLDAtMC4xODQsMC4wOTItMC4yNzYsMC4wOTJjLTAuNTUyLDAuMTg0LTEuMDEyLDAuMjc2LTEuNTY0LDAuNDZsMCwwYy0wLjA5MiwwLTAuMjc2LDAuMDkyLTAuMzY4LDAuMDkyICBjLTAuODI4LTIuMjA4LTEuODQtNC4xNC0zLjAzNi01LjYxMkMtMzM5Ljg5Miw2MjIuNTk2LTMzNy40MDgsNjI0LjA2OC0zMzUuMjkyLDYyNnogTS0zNDkuMTg0LDYyMC42NjRoMC4wOTIgIGMyLjQ4NCwwLDUuMDYsMi42NjgsNi45LDcuMjY4Yy0yLjExNiwwLjM2OC00LjQxNiwwLjU1Mi02LjgwOCwwLjU1MnMtNC43ODQtMC4xODQtNi45OTItMC41NTIgIEMtMzU0LjI0NCw2MjMuNDI0LTM1MS42NjgsNjIwLjc1Ni0zNDkuMTg0LDYyMC42NjR6IE0tMzU1LjcxNiw2MjEuODZjLTEuMTA0LDEuNDcyLTIuMTE2LDMuMzEyLTIuOTQ0LDUuNTIgIGMtMC4wOTIsMC0wLjA5MiwwLTAuMTg0LDBsMCwwYy0wLjU1Mi0wLjE4NC0xLjEwNC0wLjI3Ni0xLjU2NC0wLjQ2Yy0wLjA5MiwwLTAuMTg0LTAuMDkyLTAuMjc2LTAuMDkyICBjLTAuMzY4LTAuMTg0LTAuODI4LTAuMzY4LTEuMTk2LTAuNTUyYy0wLjE4NC0wLjA5Mi0wLjI3Ni0wLjA5Mi0wLjQ2LTAuMTg0Yy0wLjA5Mi0wLjA5Mi0wLjE4NC0wLjA5Mi0wLjM2OC0wLjE4NCAgQy0zNjAuNTkyLDYyNC4xNi0zNTguMjkyLDYyMi42ODgtMzU1LjcxNiw2MjEuODZ6IE0tMzYyLjcwOCw2NTUuOTkyYzAuMDkyLDAsMC4xODQtMC4wOTIsMC4yNzYtMC4wOTIgIGMwLjE4NC0wLjA5MiwwLjI3Ni0wLjA5MiwwLjQ2LTAuMTg0YzAuMzY4LTAuMTg0LDAuODI4LTAuMjc2LDEuMjg4LTAuNDZjMC4wOTIsMCwwLjE4NC0wLjA5MiwwLjI3Ni0wLjA5MiAgYzAuNTUyLTAuMTg0LDEuMDEyLTAuMjc2LDEuNTY0LTAuNDZsMCwwYzAuMDkyLDAsMC4wOTIsMCwwLjE4NCwwYzAuODI4LDIuMTE2LDEuODQsNC4wNDgsMi45NDQsNS41MiAgQy0zNTguMjkyLDY1OS4zMDQtMzYwLjY4NCw2NTcuODMyLTM2Mi43MDgsNjU1Ljk5MnogTS0zNDkuMDkyLDY2MS4zMjhoLTAuMDkyYy0yLjQ4NC0wLjA5Mi01LjA2LTIuNjY4LTYuODA4LTcuMTc2ICBjMi4yMDgtMC4zNjgsNC42LTAuNTUyLDYuOTkyLTAuNTUyczQuNiwwLjE4NCw2LjgwOCwwLjU1MkMtMzQzLjk0LDY1OC42Ni0zNDYuNjA4LDY2MS4zMjgtMzQ5LjA5Miw2NjEuMzI4eiBNLTM0Mi41Niw2NjAuMjI0ICBjMS4xOTYtMS40NzIsMi4yMDgtMy40MDQsMy4wMzYtNS42MTJjMC4wOTIsMCwwLjI3NiwwLjA5MiwwLjM2OCwwLjA5MmwwLDBjMC41NTIsMC4xODQsMS4xMDQsMC4yNzYsMS41NjQsMC40NiAgYzAuMDkyLDAsMC4xODQsMC4wOTIsMC4yNzYsMC4wOTJjMC40NiwwLjE4NCwwLjgyOCwwLjI3NiwxLjI4OCwwLjQ2YzAuMTg0LDAuMDkyLDAuMjc2LDAuMDkyLDAuNDYsMC4xODQgIGMwLjA5MiwwLDAuMTg0LDAuMDkyLDAuMzY4LDAuMTg0Qy0zMzcuNDA4LDY1Ny45MjQtMzM5Ljg5Miw2NTkuMzk2LTM0Mi41Niw2NjAuMjI0eiBNLTMzMy4yNjgsNjUzLjg3NkwtMzMzLjI2OCw2NTMuODc2ICBjLTAuMjc2LDAtMC40Ni0wLjA5Mi0wLjczNi0wLjE4NGMtMC4yNzYtMC4wOTItMC42NDQtMC4yNzYtMC45Mi0wLjM2OGMtMC4wOTIsMC0wLjE4NC0wLjA5Mi0wLjI3Ni0wLjA5MiAgYy0xLjEwNC0wLjQ2LTIuMy0wLjczNi0zLjQ5Ni0xLjEwNGMwLjI3Ni0xLjEwNCwwLjU1Mi0yLjIwOCwwLjczNi0zLjMxMmgtMi43NmMtMC4xODQsMS4wMTItMC4zNjgsMS45MzItMC42NDQsMi43NiAgYy0yLjM5Mi0wLjQ2LTQuOTY4LTAuNjQ0LTcuNjM2LTAuNjQ0Yy0yLjc2LDAtNS4zMzYsMC4yNzYtNy44MiwwLjczNmMtMC4yNzYtMC45Mi0wLjQ2LTEuODQtMC42NDQtMi44NTJoLTIuNzYgIGMwLjE4NCwxLjE5NiwwLjQ2LDIuMywwLjczNiwzLjQwNGMtMS4xMDQsMC4yNzYtMi4yMDgsMC42NDQtMy4yMiwxLjAxMmMtMC4wOTIsMC4wOTItMC4yNzYsMC4wOTItMC4zNjgsMC4xODQgIGMtMC4yNzYsMC4wOTItMC42NDQsMC4yNzYtMC45MiwwLjM2OGMtMC4xODQsMC0wLjQ2LDAuMDkyLTAuNjQ0LDAuMTg0bDAsMGMtMi43Ni0zLjMxMi00LjMyNC03LjQ1Mi00LjYtMTEuNjg0aDIuM3YtMi42NjhoLTIuMyAgYzAuMjc2LTQuMjMyLDEuODQtOC4yOCw0LjUwOC0xMS41bDAuMDkyLTAuMDkyYzAuMTg0LDAuMDkyLDAuNDYsMC4xODQsMC42NDQsMC4yNzZjMC4zNjgsMC4xODQsMC42NDQsMC4yNzYsMS4wMTIsMC40NiAgYzAuMDkyLDAsMC4xODQsMC4wOTIsMC4yNzYsMC4wOTJjMS4wMTIsMC4zNjgsMi4xMTYsMC43MzYsMy4zMTIsMS4wMTJjLTAuMjc2LDEuMDEyLTAuNDYsMi4wMjQtMC42NDQsMy4wMzZoMi43NiAgYzAuMTg0LTAuODI4LDAuMzY4LTEuNzQ4LDAuNTUyLTIuNDg0YzIuNDg0LDAuNDYsNS4xNTIsMC43MzYsNy44MiwwLjczNmMyLjY2OCwwLDUuMjQ0LTAuMjc2LDcuNjM2LTAuNjQ0ICBjMC4xODQsMC43MzYsMC4zNjgsMS41NjQsMC41NTIsMi40ODRoMi43NmMtMC4xODQtMS4wMTItMC4zNjgtMi4wMjQtMC42NDQtMy4wMzZjMS4xOTYtMC4yNzYsMi4zLTAuNjQ0LDMuNDA0LTEuMTA0ICBjMC4wOTIsMCwwLjI3Ni0wLjA5MiwwLjM2OC0wLjA5MmMwLjM2OC0wLjA5MiwwLjY0NC0wLjI3NiwxLjAxMi0wLjM2OGMwLjE4NC0wLjA5MiwwLjQ2LTAuMTg0LDAuNjQ0LTAuMjc2bDAsMCAgYzIuNjY4LDMuMzEyLDQuMzI0LDcuMzYsNC42LDExLjU5MmgtMi43NnYyLjY2OGgyLjc2Qy0zMjkuMDM2LDY0Ni41MTYtMzMwLjYsNjUwLjY1Ni0zMzMuMjY4LDY1My44NzZ6Ii8+JiN4YTs8cGF0aCBmaWxsPSIjRkZGRkZGIiBkPSJNLTM1NC43NzgsNjQwLjg1NWMwLDEuMDktMC4xNDMsMi4wMjMtMC40MjcsMi43OTdjLTAuMjg0LDAuNzc1LTAuNjk0LDEuNDA3LTEuMjI2LDEuODk2ICBjLTAuNTMzLDAuNDktMS4xOCwwLjg1LTEuOTQzLDEuMDc5Yy0wLjc2MiwwLjIyOS0xLjY3LDAuMzQ0LTIuNzIzLDAuMzQ0aC0yLjgzOGMtMC4yMDEsMC0wLjM3My0wLjA2LTAuNTEtMC4xNzggIGMtMC4xMzgtMC4xMi0wLjIwNi0wLjMxNC0wLjIwNi0wLjU4M3YtMTAuMzZjMC0wLjI3LDAuMDY5LTAuNDY0LDAuMjA2LTAuNTgzYzAuMTM4LTAuMTIsMC4zMDgtMC4xNzksMC41MS0wLjE3OWgzLjA0OSAgYzEuMDU5LDAsMS45NTgsMC4xMjQsMi42OTYsMC4zNzNjMC43MzgsMC4yNDgsMS4zNTksMC42MTUsMS44NjUsMS4xMDJjMC41MDUsMC40ODcsMC44ODksMS4wODgsMS4xNTMsMS44MDQgIEMtMzU0LjkxLDYzOS4wODItMzU0Ljc3OCw2MzkuOTEzLTM1NC43NzgsNjQwLjg1NXogTS0zNTcuMjc2LDY0MC45MzhjMC0wLjU2NC0wLjA2Ni0xLjA4Ny0wLjE5OC0xLjU3MSAgYy0wLjEzMi0wLjQ4My0wLjM0My0wLjkwMy0wLjYzNC0xLjI1OGMtMC4yOTEtMC4zNTUtMC42NjQtMC42MzItMS4xMjEtMC44MzFjLTAuNDU2LTAuMi0xLjA1NC0wLjI5OS0xLjc5Ni0wLjI5OWgtMS4yMjJ2OC4wODIgIGgxLjI1OWMwLjY2MSwwLDEuMjE4LTAuMDg1LDEuNjcyLTAuMjU3YzAuNDUzLTAuMTcyLDAuODMxLTAuNDMsMS4xMzQtMC43NzZzMC41My0wLjc3NiwwLjY4LTEuMjkxICBDLTM1Ny4zNTIsNjQyLjIyNC0zNTcuMjc2LDY0MS42MjQtMzU3LjI3Niw2NDAuOTM4eiIvPiYjeGE7PHBhdGggZmlsbD0iI0ZGRkZGRiIgZD0iTS0zNDIuOTk1LDY0Ni4xMjhjMCwwLjE0MS0wLjAyNCwwLjI2Ny0wLjA3MywwLjM3NmMtMC4wNTEsMC4xMS0wLjExNiwwLjIwMS0wLjE5OSwwLjI3NiAgYy0wLjA4MSwwLjA3NC0wLjE4LDAuMTI2LTAuMjkzLDAuMTZjLTAuMTE0LDAuMDM0LTAuMjI5LDAuMDUxLTAuMzQ1LDAuMDUxaC0xLjAyOGMtMC4yMTUsMC0wLjM5OS0wLjAyMS0wLjU1Ny0wLjA2NCAgYy0wLjE1NS0wLjA0Mi0wLjMtMC4xMjEtMC40MzEtMC4yMzRjLTAuMTMyLTAuMTEzLTAuMjU5LTAuMjY3LTAuMzgxLTAuNDU5Yy0wLjEyMy0wLjE5My0wLjI2LTAuNDQzLTAuNDEyLTAuNzQ5bC0yLjk1OC01LjU1NyAgYy0wLjE3Mi0wLjMzLTAuMzQ2LTAuNjg3LTAuNTIzLTEuMDdjLTAuMTc4LTAuMzgzLTAuMzM3LTAuNzU0LTAuNDc4LTEuMTE2aC0wLjAxOGMwLjAyNSwwLjQ0MSwwLjA0MywwLjg4LDAuMDU1LDEuMzE3ICBzMC4wMTgsMC44OSwwLjAxOCwxLjM1NHY2LjIxOGMwLDAuMDYyLTAuMDE3LDAuMTE3LTAuMDUxLDAuMTY2Yy0wLjAzNCwwLjA0OS0wLjA5MiwwLjA5LTAuMTc1LDAuMTI0ICBjLTAuMDgzLDAuMDM0LTAuMTk1LDAuMDYtMC4zMzUsMC4wNzdjLTAuMTQxLDAuMDE5LTAuMzIyLDAuMDI4LTAuNTQyLDAuMDI4Yy0wLjIxNCwwLTAuMzkyLTAuMDA5LTAuNTMzLTAuMDI4ICBzLTAuMjUxLTAuMDQ0LTAuMzMtMC4wNzdjLTAuMDgtMC4wMzMtMC4xMzUtMC4wNzUtMC4xNjYtMC4xMjRjLTAuMDMtMC4wNDktMC4wNDYtMC4xMDQtMC4wNDYtMC4xNjZ2LTEwLjY4MSAgYzAtMC4yODgsMC4wODQtMC41MDMsMC4yNTItMC42NDhjMC4xNjgtMC4xNDMsMC4zNzUtMC4yMTYsMC42Mi0wLjIxNmgxLjI5NGMwLjIzMywwLDAuNDI5LDAuMDIsMC41ODgsMC4wNiAgYzAuMTU5LDAuMDQsMC4zMDEsMC4xMDUsMC40MjcsMC4xOThjMC4xMjUsMC4wOTIsMC4yNDUsMC4yMTksMC4zNTQsMC4zODFjMC4xMSwwLjE2MywwLjIyMywwLjM2MywwLjMzOSwwLjYwMmwyLjMxNSw0LjM0NCAgYzAuMTMzLDAuMjYzLDAuMjY4LDAuNTIzLDAuMzk5LDAuNzc2czAuMjU5LDAuNTA5LDAuMzgxLDAuNzYzYzAuMTIxLDAuMjU0LDAuMjQsMC41MDMsMC4zNTgsMC43NDggIGMwLjExNiwwLjI0NSwwLjIyOSwwLjQ5LDAuMzM5LDAuNzM1aDAuMDA5Yy0wLjAxOC0wLjQyOS0wLjAzMi0wLjg3Ny0wLjA0MS0xLjM0MWMtMC4wMDktMC40NjUtMC4wMTMtMC45MDktMC4wMTMtMS4zMzF2LTUuNTc1ICBjMC0wLjA2MSwwLjAxOC0wLjExNiwwLjA1NC0wLjE2NmMwLjAzNi0wLjA0OSwwLjA5OC0wLjA5MiwwLjE4NC0wLjEyOGMwLjA4NS0wLjAzNywwLjE5OS0wLjA2MywwLjMzOS0wLjA3OCAgYzAuMTQxLTAuMDE2LDAuMzIyLTAuMDIzLDAuNTQyLTAuMDIzYzAuMjA4LDAsMC4zODEsMC4wMDcsMC41MjMsMC4wMjNjMC4xNDEsMC4wMTYsMC4yNDksMC4wNDEsMC4zMjcsMC4wNzggIGMwLjA3NSwwLjAzNywwLjEzLDAuMDc5LDAuMTYxLDAuMTI4YzAuMDMsMC4wNSwwLjA0NSwwLjEwNCwwLjA0NSwwLjE2NnYxMC42ODJMLTM0Mi45OTUsNjQ2LjEyOEwtMzQyLjk5NSw2NDYuMTI4eiIvPiYjeGE7PHBhdGggZmlsbD0iI0ZGRkZGRiIgZD0iTS0zMzMuMzYsNjQzLjQwOGMwLDAuNjI2LTAuMTE3LDEuMTczLTAuMzQ5LDEuNjQ0Yy0wLjIzMywwLjQ3Mi0wLjU0OCwwLjg2Ni0wLjk0NiwxLjE4ICBjLTAuMzk4LDAuMzE2LTAuODY0LDAuNTUyLTEuMzk3LDAuNzEyYy0wLjUzMiwwLjE1OS0xLjEwMiwwLjIzOC0xLjcwOCwwLjIzOGMtMC40MSwwLTAuNzkxLTAuMDM0LTEuMTQzLTAuMTAxICBjLTAuMzUyLTAuMDY4LTAuNjYzLTAuMTQ4LTAuOTMyLTAuMjQzYy0wLjI3LTAuMDk1LTAuNDk1LTAuMTk0LTAuNjc1LTAuMjk5Yy0wLjE4LTAuMTA0LTAuMzEyLTAuMTk2LTAuMzkxLTAuMjc2ICBjLTAuMDc5LTAuMDc5LTAuMTM1LTAuMTk0LTAuMTctMC4zNDRjLTAuMDMzLTAuMTUtMC4wNTEtMC4zNjYtMC4wNTEtMC42NDhjMC0wLjE5LDAuMDA2LTAuMzQ5LDAuMDE5LTAuNDc3ICBjMC4wMTItMC4xMjksMC4wMzEtMC4yMzMsMC4wNi0wLjMxM2MwLjAyNy0wLjA3OSwwLjA2NC0wLjEzNiwwLjExLTAuMTdjMC4wNDYtMC4wMzMsMC4wOTktMC4wNTEsMC4xNjEtMC4wNTEgIGMwLjA4NiwwLDAuMjA3LDAuMDUxLDAuMzYyLDAuMTUyYzAuMTU2LDAuMSwwLjM1NywwLjIxMywwLjYwMiwwLjMzNWMwLjI0NSwwLjEyMiwwLjUzNywwLjIzNCwwLjg3NywwLjMzNSAgYzAuMzM5LDAuMTAxLDAuNzMzLDAuMTUyLDEuMTgsMC4xNTJjMC4yOTMsMCwwLjU1Ny0wLjAzNSwwLjc4OS0wLjEwNmMwLjIzMi0wLjA3MSwwLjQzLTAuMTcsMC41OTItMC4yOTkgIGMwLjE2Mi0wLjEyOCwwLjI4NS0wLjI4NywwLjM3Mi0wLjQ3N2MwLjA4Ni0wLjE5LDAuMTI5LTAuNDAxLDAuMTI5LTAuNjM0YzAtMC4yNy0wLjA3NC0wLjUtMC4yMjEtMC42OTMgIGMtMC4xNDctMC4xOTMtMC4zMzktMC4zNjUtMC41NzUtMC41MTVjLTAuMjM2LTAuMTUtMC41MDMtMC4yOTEtMC44MDMtMC40MjJjLTAuMy0wLjEzMi0wLjYxLTAuMjcxLTAuOTI3LTAuNDE5ICBjLTAuMzE5LTAuMTQ3LTAuNjI3LTAuMzE0LTAuOTI3LTAuNWMtMC4zLTAuMTg3LTAuNTY5LTAuNDEtMC44MDMtMC42NzFjLTAuMjM2LTAuMjYtMC40MjctMC41NjktMC41NzUtMC45MjQgIGMtMC4xNDgtMC4zNTUtMC4yMjEtMC43OC0wLjIyMS0xLjI3N2MwLTAuNTY5LDAuMTA2LTEuMDcsMC4zMTctMS41MDJjMC4yMTItMC40MzIsMC40OTYtMC43ODksMC44NTQtMS4wNzUgIGMwLjM1OS0wLjI4NCwwLjc4MS0wLjQ5OCwxLjI2OC0wLjYzOHMxLjAwMy0wLjIxMSwxLjU0Ny0wLjIxMWMwLjI4MiwwLDAuNTY0LDAuMDIxLDAuODQ1LDAuMDY0ICBjMC4yODEsMC4wNDMsMC41NDUsMC4xMDEsMC43ODksMC4xNzVzMC40NjMsMC4xNTYsMC42NTIsMC4yNDhjMC4xOSwwLjA5MiwwLjMxNiwwLjE2OCwwLjM3NiwwLjIzICBjMC4wNjEsMC4wNjEsMC4xMDIsMC4xMTMsMC4xMjQsMC4xNTZjMC4wMjIsMC4wNDMsMC4wNCwwLjEsMC4wNTUsMC4xN2MwLjAxNiwwLjA3MSwwLjAyNiwwLjE1OSwwLjAzMSwwLjI2NyAgYzAuMDA2LDAuMTA3LDAuMDEsMC4yNCwwLjAxLDAuNGMwLDAuMTc4LTAuMDA1LDAuMzI4LTAuMDE1LDAuNDVjLTAuMDA5LDAuMTIyLTAuMDI1LDAuMjI0LTAuMDQ1LDAuMzAzICBjLTAuMDIyLDAuMDc5LTAuMDUyLDAuMTM4LTAuMDkyLDAuMTc1Yy0wLjA0LDAuMDM3LTAuMDk0LDAuMDU1LTAuMTYxLDAuMDU1Yy0wLjA2OCwwLTAuMTc1LTAuMDQyLTAuMzIyLTAuMTI4ICBzLTAuMzI4LTAuMTc5LTAuNTQyLTAuMjgxYy0wLjIxNC0wLjEtMC40NjItMC4xOTMtMC43NDMtMC4yNzZjLTAuMjgyLTAuMDgzLTAuNTkxLTAuMTI0LTAuOTI3LTAuMTI0ICBjLTAuMjYzLDAtMC40OTMsMC4wMzItMC42ODgsMC4wOTdjLTAuMTk2LDAuMDY0LTAuMzYxLDAuMTUzLTAuNDkxLDAuMjY3Yy0wLjEzMiwwLjExMy0wLjIzLDAuMjUtMC4yOTQsMC40MDggIGMtMC4wNjQsMC4xNTktMC4wOTYsMC4zMjgtMC4wOTYsMC41MDVjMCwwLjI2MywwLjA3MiwwLjQ5MSwwLjIxNSwwLjY4NWMwLjE0NCwwLjE5MywwLjMzNywwLjM2NCwwLjU3OSwwLjUxNCAgYzAuMjQyLDAuMTUsMC41MTYsMC4yOTEsMC44MjMsMC40MjJjMC4zMDYsMC4xMzIsMC42MTgsMC4yNzEsMC45MzcsMC40MTljMC4zMTgsMC4xNDcsMC42MywwLjMxNCwwLjkzNywwLjUgIGMwLjMwNiwwLjE4NywwLjU3OCwwLjQxLDAuODE4LDAuNjcxYzAuMjM4LDAuMjYsMC40MzEsMC41NjcsMC41NzgsMC45MTlDLTMzMy40MzQsNjQyLjUxNy0zMzMuMzYsNjQyLjkzMS0zMzMuMzYsNjQzLjQwOHoiLz4mI3hhOzwvc3ZnPg==;" parent="1" vertex="1">
          <mxGeometry x="247" y="349" width="40" height="40" as="geometry"/>
        </mxCell>
        <mxCell id="340A8npzHvRlRxg66V1w-20" value="Network security group" style="shape=image;verticalLabelPosition=bottom;labelBackgroundColor=#ffffff;verticalAlign=top;aspect=fixed;imageAspect=0;image=data:image/svg+xml,PHN2ZyB4bWxucz0iaHR0cDovL3d3dy53My5vcmcvMjAwMC9zdmciIHhtbG5zOnhsaW5rPSJodHRwOi8vd3d3LnczLm9yZy8xOTk5L3hsaW5rIiB4bWxuczpzdmc9Imh0dHA6Ly93d3cudzMub3JnLzIwMDAvc3ZnIiBjbGFzcz0iZnhzLXBvcnRhbC1zdmciIGlkPSJGeFN5bWJvbDAtMDZmIiByb2xlPSJwcmVzZW50YXRpb24iIHZpZXdCb3g9IjAgMCA1MCA1MCIgZm9jdXNhYmxlPSJmYWxzZSI+JiN4YTs8Zz4mI3hhOzx0aXRsZS8+JiN4YTs8cGF0aCBjbGFzcz0ibXNwb3J0YWxmeC1zdmctYzE5IiBmaWxsPSIjMDA3MmM2IiBkPSJNIDM4LjIgNiBjIC0xMSAtMS4yIC0xMi45IC02IC0xMi45IC02IFMgMjIuOCA2LjIgNyA2LjIgdiAyNS42IGMgMCAzLjEgMS43IDYgNC4xIDguNSBjIDUuNCA1LjcgMTQuMiA5LjYgMTQuMiA5LjYgcyAxOC4zIC04IDE4LjMgLTE4LjEgViA2LjIgYyAtMiAwIC0zLjggLTAuMSAtNS40IC0wLjIgWiIvPiYjeGE7PHBhdGggY2xhc3M9Im1zcG9ydGFsZngtc3ZnLWMxNiIgb3BhY2l0eT0iMC40IiBmaWxsPSIjMzk5OWM2IiBkPSJNIDI5LjkgMTYuNSBMIDM4LjIgNiBjIC0xMSAtMS4yIC0xMi45IC02IC0xMi45IC02IFMgMjIuOCA2LjIgNyA2LjIgdiAyNS42IGMgMCAzLjEgMS43IDYgNC4xIDguNSBsIDYuMiAtNy44IGwgMTIuNiAtMTYgWiIvPiYjeGE7PGcgY2xhc3M9Im1zcG9ydGFsZngtc3ZnLWMwMSIgZmlsbD0iI2ZmZmZmZiI+JiN4YTs8cGF0aCBvcGFjaXR5PSIwLjMiIGQ9Ik0gMTAuOCAyNC40IHYgNi4xIGMgMCAyLjUgMS40IDQuOCAzLjMgNi44IGMgNC4zIDQuNiAxMS4zIDcuNiAxMS4zIDcuNiBWIDI0LjQgSCAxMC44IFoiLz4mI3hhOzxwYXRoIG9wYWNpdHk9IjAuNyIgZD0iTSAyNS4zIDQ0LjkgcyAxNC42IC02LjQgMTQuNiAtMTQuNCB2IC02LjEgSCAyNS4zIHYgMjAuNSBaIG0gMCAtMzkuOCBzIC0yIDUgLTE0LjYgNSB2IDE0LjMgaCAxNC42IFYgNS4xIFoiLz4mI3hhOzxwYXRoIG9wYWNpdHk9IjAuMyIgZD0iTSAzNS41IDkuOSBjIC04LjcgLTEgLTEwLjIgLTQuNyAtMTAuMiAtNC43IHYgMTkuMiBoIDE0LjYgViAxMC4xIGMgLTEuNiAwIC0zLjEgLTAuMSAtNC40IC0wLjIgWiIvPiYjeGE7PC9nPiYjeGE7PC9nPiYjeGE7PC9zdmc+;" parent="1" vertex="1">
          <mxGeometry x="613" y="273" width="35" height="35" as="geometry"/>
        </mxCell>
        <mxCell id="340A8npzHvRlRxg66V1w-23" value="" style="shape=image;verticalLabelPosition=bottom;labelBackgroundColor=#ffffff;verticalAlign=top;aspect=fixed;imageAspect=0;image=data:image/svg+xml,PHN2ZyB4bWxucz0iaHR0cDovL3d3dy53My5vcmcvMjAwMC9zdmciIHhtbG5zOnhsaW5rPSJodHRwOi8vd3d3LnczLm9yZy8xOTk5L3hsaW5rIiB4bWxuczpzdmc9Imh0dHA6Ly93d3cudzMub3JnLzIwMDAvc3ZnIiBjbGFzcz0iZnhzLXBvcnRhbC1zdmciIGlkPSJGeFN5bWJvbDAtMDVlIiByb2xlPSJwcmVzZW50YXRpb24iIHZpZXdCb3g9IjAgMCA1MCA1MCIgZm9jdXNhYmxlPSJmYWxzZSI+JiN4YTs8Zz4mI3hhOzx0aXRsZS8+JiN4YTs8cGF0aCBjbGFzcz0ibXNwb3J0YWxmeC1zdmctYzE3IiBmaWxsPSIjODA0OTk4IiBkPSJNIDIyLjg5MSAxNS45NDkgbCAtNy42NDcgMi45MjEgViA2LjUzNyBsIDcuNjQ3IDIuNzA4IFoiLz4mI3hhOzxwYXRoIGNsYXNzPSJtc3BvcnRhbGZ4LXN2Zy1jMjAiIGZpbGw9IiM2ODIxN2EiIGQ9Ik0gOC4yODkgOC41NjUgdiA4LjEgbCA1LjcyOCAyLjE3OSBWIDYuNTM3IEwgOC4yODkgOC41NjUgWiBtIDAuNjI4IDcuNTEzIGwgLTAuMzEyIC0wLjA5NyBWIDkuMjc0IGwgMC4zMTIgLTAuMDg4IGwgMC4zMjggLTAuMDkyIGwgMC4zNDkgLTAuMDk4IHYgNy4yOTIgbCAtMC4zNDkgLTAuMTA4IGwgLTAuMzI4IC0wLjEwMiBaIG0gMS40MzYgMC40NDUgbCAtMC4zOTIgLTAuMTIxIHYgLTcuNTEgbCAwLjM5MiAtMC4xMSBsIDAuNDE1IC0wLjExNyBsIDAuNDQ0IC0wLjEyNSB2IDguMjQ5IGwgLTAuNDQ0IC0wLjEzOCBsIC0wLjQxNSAtMC4xMjggWiBtIDEuODQgMC41NjkgbCAtMC41MDggLTAuMTU3IFYgOC40MDcgbCAwLjUwOCAtMC4xNDMgbCAwLjU0MiAtMC4xNTMgbCAwLjU4NiAtMC4xNjUgdiA5LjQ5NiBsIC0wLjU4NiAtMC4xODEgbCAtMC41NDIgLTAuMTY5IFoiLz4mI3hhOzxwYXRoIGNsYXNzPSJtc3BvcnRhbGZ4LXN2Zy1jMTciIGZpbGw9IiM4MDQ5OTgiIGQ9Ik0gNDAuNzkxIDE1Ljk0OSBsIC03LjY0OCAyLjkyMSBWIDYuNTM3IGwgNy42NDggMi43MDggWiIvPiYjeGE7PHBhdGggY2xhc3M9Im1zcG9ydGFsZngtc3ZnLWMyMCIgZmlsbD0iIzY4MjE3YSIgZD0iTSAyNi4xODkgOC41NjUgdiA4LjEgbCA1LjcyOCAyLjE3OSBWIDYuNTM3IGwgLTUuNzI4IDIuMDI4IFogbSAwLjYyNyA3LjUxMyBsIC0wLjMxMiAtMC4wOTcgViA5LjI3NCBsIDAuMzEyIC0wLjA4OCBsIDAuMzI4IC0wLjA5MiBsIDAuMzQ5IC0wLjA5OCB2IDcuMjkyIGwgLTAuMzQ5IC0wLjEwOCBsIC0wLjMyOCAtMC4xMDIgWiBtIDEuNDM2IDAuNDQ1IGwgLTAuMzkyIC0wLjEyMSB2IC03LjUxIGwgMC4zOTIgLTAuMTEgbCAwLjQxNSAtMC4xMTcgbCAwLjQ0NCAtMC4xMjUgdiA4LjI0OSBsIC0wLjQ0NCAtMC4xMzggbCAtMC40MTUgLTAuMTI4IFogbSAxLjg0IDAuNTY5IGwgLTAuNTA4IC0wLjE1NyBWIDguNDA3IGwgMC41MDggLTAuMTQzIGwgMC41NDIgLTAuMTUzIGwgMC41ODYgLTAuMTY1IHYgOS40OTYgbCAtMC41ODYgLTAuMTgxIGwgLTAuNTQyIC0wLjE2OSBaIi8+JiN4YTs8cGF0aCBjbGFzcz0ibXNwb3J0YWxmeC1zdmctYzE3IiBmaWxsPSIjODA0OTk4IiBkPSJNIDIyLjg5MSA0MC41NDMgbCAtNy42NDcgMi45MiBWIDMxLjEzIGwgNy42NDcgMi43MDkgWiIvPiYjeGE7PHBhdGggY2xhc3M9Im1zcG9ydGFsZngtc3ZnLWMyMCIgZmlsbD0iIzY4MjE3YSIgZD0iTSA4LjI4OSAzMy4xNTkgdiA4LjEgbCA1LjcyOCAyLjE3OSBWIDMxLjEzIGwgLTUuNzI4IDIuMDI5IFogbSAwLjYyOCA3LjUxMyBsIC0wLjMxMiAtMC4wOTcgdiAtNi43MDcgbCAwLjMxMiAtMC4wODggbCAwLjMyOCAtMC4wOTIgbCAwLjM0OSAtMC4wOTggdiA3LjI5MiBsIC0wLjM0OSAtMC4xMDggbCAtMC4zMjggLTAuMTAyIFogbSAxLjQzNiAwLjQ0NCBsIC0wLjM5MiAtMC4xMjEgdiAtNy41MDkgbCAwLjM5MiAtMC4xMTEgbCAwLjQxNSAtMC4xMTcgbCAwLjQ0NCAtMC4xMjUgdiA4LjI0OSBsIC0wLjQ0NCAtMC4xMzggbCAtMC40MTUgLTAuMTI4IFogbSAxLjg0IDAuNTcgbCAtMC41MDggLTAuMTU3IFYgMzMgbCAwLjUwOCAtMC4xNDMgbCAwLjU0MiAtMC4xNTMgbCAwLjU4NiAtMC4xNjUgdiA5LjQ5NiBsIC0wLjU4NiAtMC4xODEgbCAtMC41NDIgLTAuMTY4IFoiLz4mI3hhOzxwYXRoIGNsYXNzPSJtc3BvcnRhbGZ4LXN2Zy1jMTciIGZpbGw9IiM4MDQ5OTgiIGQ9Ik0gNDAuNzkxIDQwLjU0MyBsIC03LjY0OCAyLjkyIFYgMzEuMTMgbCA3LjY0OCAyLjcwOSBaIi8+JiN4YTs8cGF0aCBjbGFzcz0ibXNwb3J0YWxmeC1zdmctYzIwIiBmaWxsPSIjNjgyMTdhIiBkPSJNIDI2LjE4OSAzMy4xNTkgdiA4LjEgbCA1LjcyOCAyLjE3OSBWIDMxLjEzIGwgLTUuNzI4IDIuMDI5IFogbSAwLjYyNyA3LjUxMyBsIC0wLjMxMiAtMC4wOTcgdiAtNi43MDcgbCAwLjMxMiAtMC4wODggbCAwLjMyOCAtMC4wOTIgbCAwLjM0OSAtMC4wOTggdiA3LjI5MiBsIC0wLjM0OSAtMC4xMDggbCAtMC4zMjggLTAuMTAyIFogbSAxLjQzNiAwLjQ0NCBsIC0wLjM5MiAtMC4xMjEgdiAtNy41MDkgbCAwLjM5MiAtMC4xMTEgbCAwLjQxNSAtMC4xMTcgbCAwLjQ0NCAtMC4xMjUgdiA4LjI0OSBsIC0wLjQ0NCAtMC4xMzggbCAtMC40MTUgLTAuMTI4IFogbSAxLjg0IDAuNTcgbCAtMC41MDggLTAuMTU3IFYgMzMgbCAwLjUwOCAtMC4xNDMgbCAwLjU0MiAtMC4xNTMgbCAwLjU4NiAtMC4xNjUgdiA5LjQ5NiBsIC0wLjU4NiAtMC4xODEgbCAtMC41NDIgLTAuMTY4IFoiLz4mI3hhOzxwYXRoIGNsYXNzPSJtc3BvcnRhbGZ4LXN2Zy1jMTciIGZpbGw9IiM4MDQ5OTgiIGQ9Ik0gMzIuNDE3IDI4LjIxIGwgLTcuNjQ4IDIuOTIgViAxOC43OTggbCA3LjY0OCAyLjcwOCBaIi8+JiN4YTs8cGF0aCBjbGFzcz0ibXNwb3J0YWxmeC1zdmctYzIwIiBmaWxsPSIjNjgyMTdhIiBkPSJNIDE3LjgxNSAyMC44MjYgdiA4LjEgbCA1LjcyOCAyLjE3OSBWIDE4Ljc5OCBsIC01LjcyOCAyLjAyOCBaIG0gMC42MjcgNy41MTMgbCAtMC4zMTIgLTAuMDk3IHYgLTYuNzA3IGwgMC4zMTIgLTAuMDg4IGwgMC4zMjggLTAuMDkyIGwgMC4zNDkgLTAuMDk4IHYgNy4yOTIgbCAtMC4zNDkgLTAuMTA4IGwgLTAuMzI4IC0wLjEwMiBaIG0gMS40MzYgMC40NDUgbCAtMC4zOTIgLTAuMTIxIHYgLTcuNTA5IGwgMC4zOTIgLTAuMTEgbCAwLjQxNSAtMC4xMTcgbCAwLjQ0NCAtMC4xMjUgdiA4LjI0OSBsIC0wLjQ0NCAtMC4xMzggbCAtMC40MTUgLTAuMTI5IFogbSAxLjg0IDAuNTY5IGwgLTAuNTA4IC0wLjE1NyB2IC04LjUyOCBsIDAuNTA4IC0wLjE0MyBsIDAuNTQyIC0wLjE1MyBsIDAuNTg2IC0wLjE2NSB2IDkuNDk2IGwgLTAuNTg2IC0wLjE4MSBsIC0wLjU0MiAtMC4xNjkgWiIvPiYjeGE7PHBhdGggY2xhc3M9Im1zcG9ydGFsZngtc3ZnLWMxNyIgZmlsbD0iIzgwNDk5OCIgZD0iTSAxNC42MSAyOC4yMSBsIC03LjY0OCAyLjkyIFYgMTguNzk4IGwgNy42NDggMi43MDggWiIvPiYjeGE7PHBhdGggY2xhc3M9Im1zcG9ydGFsZngtc3ZnLWMyMCIgZmlsbD0iIzY4MjE3YSIgZD0iTSAwLjAwOCAyMC44MjYgdiA4LjEgbCA1LjcyOCAyLjE3OSBWIDE4Ljc5OCBMIDAuMDA4IDIwLjgyNiBaIG0gMC42MjcgNy41MTMgbCAtMC4zMTIgLTAuMDk3IHYgLTYuNzA3IGwgMC4zMTIgLTAuMDg4IGwgMC4zMjggLTAuMDkyIGwgMC4zNDkgLTAuMDk4IHYgNy4yOTIgbCAtMC4zNDkgLTAuMTA4IGwgLTAuMzI4IC0wLjEwMiBaIG0gMS40MzYgMC40NDUgbCAtMC4zOTIgLTAuMTIxIHYgLTcuNTA5IGwgMC4zOTIgLTAuMTEgbCAwLjQxNSAtMC4xMTcgbCAwLjQ0NSAtMC4xMjcgdiA4LjI0OSBsIC0wLjQ0NCAtMC4xMzggbCAtMC40MTYgLTAuMTI3IFogbSAxLjg0IDAuNTY5IGwgLTAuNTA4IC0wLjE1NyB2IC04LjUyOCBsIDAuNTA4IC0wLjE0MyBsIDAuNTQyIC0wLjE1MyBsIDAuNTg2IC0wLjE2NSB2IDkuNDk2IGwgLTAuNTg2IC0wLjE4MSBsIC0wLjU0MiAtMC4xNjkgWiIvPiYjeGE7PHBhdGggY2xhc3M9Im1zcG9ydGFsZngtc3ZnLWMxNyIgZmlsbD0iIzgwNDk5OCIgZD0iTSA1MCAyOC4yMSBsIC03LjY0OCAyLjkyIFYgMTguNzk4IEwgNTAgMjEuNTA2IFoiLz4mI3hhOzxwYXRoIGNsYXNzPSJtc3BvcnRhbGZ4LXN2Zy1jMjAiIGZpbGw9IiM2ODIxN2EiIGQ9Ik0gMzUuMzk4IDIwLjgyNiB2IDguMSBsIDUuNzI4IDIuMTc5IFYgMTguNzk4IGwgLTUuNzI4IDIuMDI4IFogbSAwLjYyNyA3LjUxMyBsIC0wLjMxMiAtMC4wOTcgdiAtNi43MDcgbCAwLjMxMiAtMC4wODggbCAwLjMyOCAtMC4wOTIgbCAwLjM0OSAtMC4wOTggdiA3LjI5MiBsIC0wLjM0OSAtMC4xMDggbCAtMC4zMjggLTAuMTAyIFogbSAxLjQzNiAwLjQ0NSBsIC0wLjM5MiAtMC4xMjEgdiAtNy41MDkgbCAwLjM5MiAtMC4xMSBsIDAuNDE1IC0wLjExNyBsIDAuNDQ0IC0wLjEyNSB2IDguMjQ5IGwgLTAuNDQ0IC0wLjEzOCBsIC0wLjQxNSAtMC4xMjkgWiBtIDEuODQgMC41NjkgbCAtMC41MDggLTAuMTU3IHYgLTguNTI4IGwgMC41MDggLTAuMTQzIGwgMC41NDIgLTAuMTUzIGwgMC41ODYgLTAuMTY1IHYgOS40OTYgbCAtMC41ODYgLTAuMTgxIGwgLTAuNTQyIC0wLjE2OSBaIi8+JiN4YTs8L2c+JiN4YTs8L3N2Zz4=;" parent="1" vertex="1">
          <mxGeometry x="690" y="331.5" width="50" height="50" as="geometry"/>
        </mxCell>
        <mxCell id="340A8npzHvRlRxg66V1w-24" value="" style="shape=image;verticalLabelPosition=bottom;labelBackgroundColor=#ffffff;verticalAlign=top;aspect=fixed;imageAspect=0;image=data:image/svg+xml,PHN2ZyB4bWxuczpkYz0iaHR0cDovL3B1cmwub3JnL2RjL2VsZW1lbnRzLzEuMS8iIHhtbG5zOmNjPSJodHRwOi8vY3JlYXRpdmVjb21tb25zLm9yZy9ucyMiIHhtbG5zOnJkZj0iaHR0cDovL3d3dy53My5vcmcvMTk5OS8wMi8yMi1yZGYtc3ludGF4LW5zIyIgeG1sbnM6c3ZnPSJodHRwOi8vd3d3LnczLm9yZy8yMDAwL3N2ZyIgeG1sbnM9Imh0dHA6Ly93d3cudzMub3JnLzIwMDAvc3ZnIiB4bWxuczpzb2RpcG9kaT0iaHR0cDovL3NvZGlwb2RpLnNvdXJjZWZvcmdlLm5ldC9EVEQvc29kaXBvZGktMC5kdGQiIHhtbG5zOmlua3NjYXBlPSJodHRwOi8vd3d3Lmlua3NjYXBlLm9yZy9uYW1lc3BhY2VzL2lua3NjYXBlIiB2aWV3Qm94PSIwIDE3NC43NTI0IDcyMi44NDU3IDcwMS45NjYzNyIgaWQ9InN2ZzIiIHZlcnNpb249IjEuMSIgc29kaXBvZGk6ZG9jbmFtZT0ibG9nby5zdmciIGlua3NjYXBlOmV4cG9ydC1maWxlbmFtZT0iL2hvbWUvdGhvY2tpbi9zcmMva3ViZXJuZXRlcy9uZXcucG5nIiBpbmtzY2FwZTpleHBvcnQteGRwaT0iNDYwLjk1MDAxIiBpbmtzY2FwZTpleHBvcnQteWRwaT0iNDYwLjk1MDAxIj4mI3hhOyAgPGRlZnMgaWQ9ImRlZnM0Ii8+JiN4YTsgIDxzb2RpcG9kaTpuYW1lZHZpZXcgaWQ9ImJhc2UiIHBhZ2Vjb2xvcj0iI2ZmZmZmZiIgYm9yZGVyY29sb3I9IiM2NjY2NjYiIGJvcmRlcm9wYWNpdHk9IjEuMCIgaW5rc2NhcGU6cGFnZW9wYWNpdHk9IjAuMCIgaW5rc2NhcGU6cGFnZXNoYWRvdz0iMiIgaW5rc2NhcGU6em9vbT0iMTYuMTkwNTA5IiBpbmtzY2FwZTpjeD0iMjc3LjU2ODUxIiBpbmtzY2FwZTpjeT0iMTU3LjU0NDk0IiBpbmtzY2FwZTpkb2N1bWVudC11bml0cz0icHgiIGlua3NjYXBlOmN1cnJlbnQtbGF5ZXI9ImczMDUyIiBzaG93Z3JpZD0iZmFsc2UiIGlua3NjYXBlOndpbmRvdy13aWR0aD0iMTUxOSIgaW5rc2NhcGU6d2luZG93LWhlaWdodD0iODIyIiBpbmtzY2FwZTp3aW5kb3cteD0iNTEiIGlua3NjYXBlOndpbmRvdy15PSIyNSIgaW5rc2NhcGU6d2luZG93LW1heGltaXplZD0iMCIgaW5rc2NhcGU6c25hcC1nbG9iYWw9ImZhbHNlIiBmaXQtbWFyZ2luLXRvcD0iMTAiIGZpdC1tYXJnaW4tbGVmdD0iMTAiIGZpdC1tYXJnaW4tcmlnaHQ9IjEwIiBmaXQtbWFyZ2luLWJvdHRvbT0iMTAiLz4mI3hhOyAgPG1ldGFkYXRhIGlkPSJtZXRhZGF0YTciPiYjeGE7ICAgIDxyZGY6UkRGPiYjeGE7ICAgICAgPGNjOldvcmsgcmRmOmFib3V0PSIiPiYjeGE7ICAgICAgICA8ZGM6Zm9ybWF0PmltYWdlL3N2Zyt4bWw8L2RjOmZvcm1hdD4mI3hhOyAgICAgICAgPGRjOnR5cGUgcmRmOnJlc291cmNlPSJodHRwOi8vcHVybC5vcmcvZGMvZGNtaXR5cGUvU3RpbGxJbWFnZSIvPiYjeGE7ICAgICAgICA8ZGM6dGl0bGUvPiYjeGE7ICAgICAgPC9jYzpXb3JrPiYjeGE7ICAgIDwvcmRmOlJERj4mI3hhOyAgPC9tZXRhZGF0YT4mI3hhOyAgPGcgaW5rc2NhcGU6bGFiZWw9IkxheWVyIDEiIGlua3NjYXBlOmdyb3VwbW9kZT0ibGF5ZXIiIGlkPSJsYXllcjEiIHRyYW5zZm9ybT0idHJhbnNsYXRlKC02LjMyNjA5NDIsLTE3NC43NTI0KSI+JiN4YTsgICAgPGcgaWQ9ImczMDUyIj4mI3hhOyAgICAgIDxwYXRoIHN0eWxlPSJmaWxsOiMzMjZjZTU7ZmlsbC1vcGFjaXR5OjE7c3Ryb2tlOiNmZmZmZmY7c3Ryb2tlLXdpZHRoOjA7c3Ryb2tlLW1pdGVybGltaXQ6NDtzdHJva2Utb3BhY2l0eToxO3N0cm9rZS1kYXNoYXJyYXk6bm9uZSIgZD0ibSAzNjUuMzEyNSwxODQuODEyNSBhIDQ2LjcyNDYyMSw0Ni4zNDIyNDYgMCAwIDAgLTE3LjkwNjI1LDQuNTMxMjUgbCAtMjQ0LjM0Mzc1LDExNi43NSBhIDQ2LjcyNDYyMSw0Ni4zNDIyNDYgMCAwIDAgLTI1LjI4MTI1LDMxLjQzNzUgTCAxNy41LDU5OS43ODEyNSBBIDQ2LjcyNDYyMSw0Ni4zNDIyNDYgMCAwIDAgMjMuODQzNzUsNjM1LjMxMjUgNDYuNzI0NjIxLDQ2LjM0MjI0NiAwIDAgMCAyNi41LDYzOSBsIDE2OS4xMjUsMjEwLjI4MTI1IGEgNDYuNzI0NjIxLDQ2LjM0MjI0NiAwIDAgMCAzNi41MzEyNSwxNy40Mzc1IEwgNTAzLjM3NSw4NjYuNjU2MjUgQSA0Ni43MjQ2MjEsNDYuMzQyMjQ2IDAgMCAwIDUzOS45MDYyNSw4NDkuMjUgTCA3MDguOTY4NzUsNjM4LjkzNzUgQSA0Ni43MjQ2MjEsNDYuMzQyMjQ2IDAgMCAwIDcxOCw1OTkuNzE4NzUgbCAtNjAuMzc1LC0yNjIuMjUgYSA0Ni43MjQ2MjEsNDYuMzQyMjQ2IDAgMCAwIC0yNS4yODEyNSwtMzEuNDM3NSBsIC0yNDQuMzc1LC0xMTYuNjg3NSBBIDQ2LjcyNDYyMSw0Ni4zNDIyNDYgMCAwIDAgMzY1LjMxMjUsMTg0LjgxMjUgeiIgaWQ9InBhdGgzMDU1IiBpbmtzY2FwZTpjb25uZWN0b3ItY3VydmF0dXJlPSIwIiBpbmtzY2FwZTpleHBvcnQtZmlsZW5hbWU9Im5ldy5wbmciIGlua3NjYXBlOmV4cG9ydC14ZHBpPSIyNTAuNTUiIGlua3NjYXBlOmV4cG9ydC15ZHBpPSIyNTAuNTUiLz4mI3hhOyAgICAgIDxwYXRoIGlua3NjYXBlOmNvbm5lY3Rvci1jdXJ2YXR1cmU9IjAiIGlkPSJwYXRoMzA1OSIgZD0ibSAzNjcuNzMzNjYsMjc0LjA1OTYyIGMgLTguMDc2OTYsOC4yZS00IC0xNC42MjU5Niw3LjI3NTkxIC0xNC42MjUsMTYuMjUgMWUtNSwwLjEzNzczIDAuMDI4MiwwLjI2OTM0IDAuMDMxMiwwLjQwNjI1IC0wLjAxMTksMS4yMTkzNiAtMC4wNzA4LDIuNjg4MzYgLTAuMDMxMiwzLjc1IDAuMTkyNjIsNS4xNzYgMS4zMjA5LDkuMTM3NDkgMiwxMy45MDYyNSAxLjIzMDI4LDEwLjIwNjY2IDIuMjYxMTcsMTguNjY3MzYgMS42MjUsMjYuNTMxMjUgLTAuNjE4NjksMi45NjU0IC0yLjgwMjg4LDUuNjc3NDEgLTQuNzUsNy41NjI1IGwgLTAuMzQzNzUsNi4xODc1IGMgLTguNzc2ODIsMC43MjcxNyAtMTcuNjEyMzUsMi4wNTg3NCAtMjYuNDM3NSw0LjA2MjUgLTM3Ljk3NDYxLDguNjIyMTggLTcwLjY3MDA4LDI4LjE4MzA3IC05NS41NjI1LDU0LjU5Mzc1IC0xLjYxNTIyLC0xLjEwMTkzIC00LjQ0MTAzLC0zLjEyOTE0IC01LjI4MTMsLTMuNzUgLTIuNjExMTcsMC4zNTI2MiAtNS4yNTAyMSwxLjE1ODI5IC04LjY4NzUsLTAuODQzNzUgLTYuNTQ0OTEsLTQuNDA1NjMgLTEyLjUwNTg3LC0xMC40ODY5MyAtMTkuNzE4NzUsLTE3LjgxMjUgLTMuMzA0OTgsLTMuNTA0MTkgLTUuNjk4MzIsLTYuODQxMDEgLTkuNjI1LC0xMC4yMTg3NSAtMC44OTE3MiwtMC43NjcwNyAtMi4yNTI1OCwtMS44MDQ1NSAtMy4yNSwtMi41OTM3NSAtMy4wNjk4OCwtMi40NDc1NyAtNi42OTA3LC0zLjcyNDAyIC0xMC4xODc1LC0zLjg0Mzc1IC00LjQ5NTg5LC0wLjE1Mzk0IC04LjgyMzk0LDEuNjAzODUgLTExLjY1NjI1LDUuMTU2MjUgLTUuMDM1MjEsNi4zMTUzOCAtMy40MjMxMiwxNS45NjgwNSAzLjU5Mzc1LDIxLjU2MjUgMC4wNzEyLDAuMDU2NyAwLjE0NzAyLDAuMTAwNzggMC4yMTg3NSwwLjE1NjI1IDAuOTY0MjIsMC43ODE2MiAyLjE0NDk2LDEuNzgzMTMgMy4wMzEyNSwyLjQzNzUgNC4xNjY4NywzLjA3NjU1IDcuOTczMiw0LjY1MTQ1IDEyLjEyNSw3LjA5Mzc1IDguNzQ3LDUuNDAxODEgMTUuOTk4MzcsOS44ODA4NiAyMS43NSwxNS4yODEyNSAyLjI0NjAyLDIuMzk0MTcgMi42Mzg1OCw2LjYxMjkyIDIuOTM3NSw4LjQzNzUgbCA0LjY4NzUsNC4xODc1IGMgLTI1LjA5MzQyLDM3Ljc2MzY4IC0zNi43MDY4Niw4NC40MDk0NiAtMjkuODQzNywxMzEuOTM3NSBsIC02LjEyNSwxLjc4MTI1IGMgLTEuNjE0MywyLjA4NDYxIC0zLjg5NTQxLDUuMzY0NzQgLTYuMjgxMyw2LjM0Mzc1IC03LjUyNTEzLDIuMzcwMjEgLTE1Ljk5NDI0LDMuMjQwNTkgLTI2LjIxODc1LDQuMzEyNSAtNC44MDAzMSwwLjM5OTE1IC04Ljk0MjE4LDAuMTYwOTUgLTE0LjAzMTI1LDEuMTI1IC0xLjEyMDA4LDAuMjEyMTggLTIuNjgwNzIsMC42MTg3NyAtMy45MDYyNSwwLjkwNjI1IC0wLjA0MjYsMC4wMDkgLTAuMDgyNCwwLjAyMTYgLTAuMTI1LDAuMDMxMiAtMC4wNjY4LDAuMDE1NSAtMC4xNTQ1NiwwLjA0NzkgLTAuMjE4NzUsMC4wNjI1IC04LjYyMDE0LDIuMDgyNzkgLTE0LjE1Nzc0LDEwLjAwNiAtMTIuMzc1LDE3LjgxMjUgMS43ODMxNiw3LjgwODMzIDEwLjIwMzE0LDEyLjU1Njc3IDE4Ljg3NSwxMC42ODc1IDAuMDYyNiwtMC4wMTQzIDAuMTUzNSwtMC4wMTY3IDAuMjE4NzUsLTAuMDMxMiAwLjA5NzksLTAuMDIyNCAwLjE4NDA5LC0wLjA2OTkgMC4yODEyNSwtMC4wOTM3IDEuMjA4ODUsLTAuMjY1MzYgMi43MjM3NywtMC41NjA2IDMuNzgxMjUsLTAuODQzNzUgNS4wMDMzNCwtMS4zMzk2MyA4LjYyNjk0LC0zLjMwNzk2IDEzLjEyNSwtNS4wMzEyNSA5LjY3Njk0LC0zLjQ3MDc3IDE3LjY5MTczLC02LjM3MDIyIDI1LjUsLTcuNSAzLjI2MTE4LC0wLjI1NTQyIDYuNjk3MTEsMi4wMTIxNiA4LjQwNjI1LDIuOTY4NzUgbCA2LjM3NSwtMS4wOTM3NSBjIDE0LjY3MDE4LDQ1LjQ4MjgyIDQ1LjQxNDE2LDgyLjI0NTAyIDg0LjM0Mzc1LDEwNS4zMTI1IGwgLTIuNjU2MjUsNi4zNzUgYyAwLjk1NzQyLDIuNDc1NDIgMi4wMTM0MSw1LjgyNDcgMS4zMDAyMiw4LjI2OTMyIC0yLjgzODY4LDcuMzYxMiAtNy43MDA5NywxNS4xMzA5NyAtMTMuMjM3NzIsMjMuNzkzMTggLTIuNjgwODUsNC4wMDE5MiAtNS40MjQ1Myw3LjEwNzYxIC03Ljg0Mzc1LDExLjY4NzUgLTAuNTc4OSwxLjA5NTg5IC0xLjMxNjE4LDIuNzc5MzIgLTEuODc1LDMuOTM3NSAtMy43NTg4NCw4LjA0MjM2IC0xLjAwMTY0LDE3LjMwNTIgNi4yMTg3NSwyMC43ODEyNSA3LjI2NTc1LDMuNDk3ODggMTYuMjg0NDcsLTAuMTkxMzQgMjAuMTg3NSwtOC4yNSAwLjAwNiwtMC4wMTE0IDAuMDI1NywtMC4wMTk4IDAuMDMxMiwtMC4wMzEyIDAuMDA0LC0wLjAwOSAtMC4wMDQsLTAuMDIyNSAwLC0wLjAzMTIgMC41NTU5MywtMS4xNDI1NSAxLjM0MzUzLC0yLjY0NDM3IDEuODEyNSwtMy43MTg3NSAyLjA3MjEzLC00Ljc0NzAyIDIuNzYxNjEsLTguODE1MDYgNC4yMTg3NSwtMTMuNDA2MjUgMy44Njk2MiwtOS43MjAxNCA1Ljk5NTY3LC0xOS45MTkwMyAxMS4zMjI1OCwtMjYuMjc0MTEgMS40NTg2OCwtMS43NDAyMyAzLjgzNjgxLC0yLjQwOTUgNi4zMDI0MiwtMy4wNjk2NCBsIDMuMzEyNSwtNiBjIDMzLjkzODI0LDEzLjAyNjggNzEuOTI2NjYsMTYuNTIyNDYgMTA5Ljg3NSw3LjkwNjI1IDguNjU2OTcsLTEuOTY1NTcgMTcuMDE0NDQsLTQuNTA5NDUgMjUuMDkzNzUsLTcuNTYyNSAwLjkzMDk4LDEuNjUxMzMgMi42NjExMyw0LjgyNTcgMy4xMjUsNS42MjUgMi41MDU1OSwwLjgxNTE4IDUuMjQwNDQsMS4yMzYxNCA3LjQ2ODc1LDQuNTMxMjUgMy45ODUzOSw2LjgwODk4IDYuNzEwOSwxNC44NjQxNiAxMC4wMzEyNSwyNC41OTM3NSAxLjQ1NzM4LDQuNTkxMTEgMi4xNzc2Miw4LjY1OTMzIDQuMjUsMTMuNDA2MjUgMC40NzIzNCwxLjA4MTk1IDEuMjU2LDIuNjA0ODYgMS44MTI1LDMuNzUgMy44OTQ4Miw4LjA4NDg0IDEyLjk0MjEyLDExLjc4NjY3IDIwLjIxODc1LDguMjgxMjUgNy4yMTk1LC0zLjQ3NzkgOS45Nzk3NCwtMTIuNzM5OSA2LjIxODc1LC0yMC43ODEyNSAtMC41NTg4OSwtMS4xNTgxNCAtMS4zMjczLC0yLjg0MTY0IC0xLjkwNjI1LC0zLjkzNzUgLTIuNDE5NDYsLTQuNTc5NzYgLTUuMTYyNywtNy42NTQ0OCAtNy44NDM3NSwtMTEuNjU2MjUgLTUuNTM3MjEsLTguNjYxOTIgLTEwLjEyOTY4LC0xNS44NTc3IC0xMi45Njg3NSwtMjMuMjE4NzUgLTEuMTg3MTEsLTMuNzk2NTcgMC4yMDAyOCwtNi4xNTc3NCAxLjEyNSwtOC42MjUgLTAuNTUzNzgsLTAuNjM0NzcgLTEuNzM4ODEsLTQuMjIwMDkgLTIuNDM3NSwtNS45MDYyNSA0MC40NTc0LC0yMy44ODgxNiA3MC4yOTg1NiwtNjIuMDIxMjkgODQuMzEyNSwtMTA2LjA2MjUgMS44OTI0LDAuMjk3NDIgNS4xODE1NCwwLjg3OTM2IDYuMjUsMS4wOTM3NSAyLjE5OTU0LC0xLjQ1MDcgNC4yMjE5NCwtMy4zNDM1MiA4LjE4NzUsLTMuMDMxMjUgNy44MDgzMiwxLjEyOTM3IDE1LjgyMjg4LDQuMDI5NzMgMjUuNSw3LjUgNC40OTgxNSwxLjcyMzA2IDguMTIxNiwzLjcyMzEzIDEzLjEyNSw1LjA2MjUgMS4wNTc0OSwwLjI4MzA5IDIuNTcyMzgsMC41NDcyIDMuNzgxMjUsMC44MTI1IDAuMDk3MiwwLjAyMzggMC4xODMzLDAuMDcxNCAwLjI4MTI1LDAuMDkzNyAwLjA2NTMsMC4wMTQ2IDAuMTU2MTUsMC4wMTY5IDAuMjE4NzUsMC4wMzEyIDguNjcyMzYsMS44NjY5NSAxNy4wOTM4NCwtMi44Nzg3MSAxOC44NzUsLTEwLjY4NzUgMS43ODA3NCwtNy44MDY5NiAtMy43NTQzLC0xNS43MzIwMSAtMTIuMzc1LC0xNy44MTI1IC0xLjI1MzkzLC0wLjI4NTEzIC0zLjAzMjI1LC0wLjc2OTM4IC00LjI1LC0xIC01LjA4OTEyLC0wLjk2Mzc4IC05LjIzMDkyLC0wLjcyNjEgLTE0LjAzMTI1LC0xLjEyNSAtMTAuMjI0NTYsLTEuMDcxMzggLTE4LjY5MzUsLTEuOTQyNjkgLTI2LjIxODc1LC00LjMxMjUgLTMuMDY4MjYsLTEuMTkwMjggLTUuMjUxMDMsLTQuODQxMjQgLTYuMzEyNTUsLTYuMzQzNzUgbCAtNS45MDYyNSwtMS43MTg3NSBjIDMuMDYyMjYsLTIyLjE1NDQyIDIuMjM2NTUsLTQ1LjIxMTM0IC0zLjA2MjUsLTY4LjI4MTI1IC01LjM0ODM5LC0yMy4yODQ3MSAtMTQuODAwMzcsLTQ0LjU4MDg0IC0yNy40MDYyNSwtNjMuMzQzNzUgMS41MTUwNSwtMS4zNzcyOSA0LjM3NjE5LC0zLjkxMDkxIDUuMTg3NSwtNC42NTYyNSAwLjIzNzE2LC0yLjYyNDE3IDAuMDMzNCwtNS4zNzU1MyAyLjc1LC04LjI4MTI1IDUuNzUxMzQsLTUuNDAwNjkgMTMuMDAzMjksLTkuODc4OTggMjEuNzUsLTE1LjI4MTI1IDQuMTUxNjcsLTIuNDQyNTIgNy45ODk1NCwtNC4wMTY5OCAxMi4xNTYyNSwtNy4wOTM3NSAwLjk0MjI1LC0wLjY5NTc2IDIuMjI4OSwtMS43OTc1OSAzLjIxODc1LC0yLjU5Mzc1IDcuMDE1MzgsLTUuNTk2MzMgOC42MzA1OCwtMTUuMjQ4NDIgMy41OTM3NSwtMjEuNTYyNSAtNS4wMzY4MywtNi4zMTQwOCAtMTQuNzk3MTIsLTYuOTA4ODMgLTIxLjgxMjUsLTEuMzEyNSAtMC45OTg1NiwwLjc5MDg1IC0yLjM1MzUzLDEuODIyNTIgLTMuMjUsMi41OTM3NSAtMy45MjY1LDMuMzc3OTYgLTYuMzUxNDUsNi43MTQzOSAtOS42NTYyNSwxMC4yMTg3NSAtNy4yMTI0OSw3LjMyNTk1IC0xMy4xNzQwNywxMy40Mzc3NyAtMTkuNzE4NzUsMTcuODQzNzUgLTIuODM2MDEsMS42NTEwNiAtNi45ODk5NiwxLjA3OTc4IC04Ljg3NTA1LDAuOTY4NzUgbCAtNS41NjI1LDMuOTY4NzUgYyAtMzEuNzE4OCwtMzMuMjYwNTcgLTc0LjkwNDY2LC01NC41MjU0NiAtMTIxLjQwNjA1LC01OC42NTYzIC0wLjEzMDA2LC0xLjk0ODcyIC0wLjMwMDQ1LC01LjQ3MTE3IC0wLjM0Mzc1LC02LjUzMTI1IC0xLjkwMzcxLC0xLjgyMTY1IC00LjIwMzQyLC0zLjM3Njg2IC00Ljc4MTI1LC03LjMxMjUgLTAuNjM2MTcsLTcuODYzODkgMC40MjU5NywtMTYuMzI0NTkgMS42NTYyNSwtMjYuNTMxMjUgMC42NzkxLC00Ljc2ODc2IDEuODA3MzgsLTguNzMwMjUgMiwtMTMuOTA2MjUgMC4wNDM4LC0xLjE3NjYzIC0wLjAyNjUsLTIuODg0MDEgLTAuMDMxMiwtNC4xNTYyNSAtOS42ZS00LC04Ljk3NDA5IC02LjU0ODA0LC0xNi4yNTA4MiAtMTQuNjI1LC0xNi4yNSB6IG0gLTE4LjMxMjUsMTEzLjQzNzUgLTQuMzQzNzUsNzYuNzE4NzUgLTAuMzEyNSwwLjE1NjI1IGMgLTAuMjkxMzQsNi44NjMzNSAtNS45Mzk5NiwxMi4zNDM3NSAtMTIuODc1LDEyLjM0Mzc1IC0yLjg0MDgxLDAgLTUuNDYyOTQsLTAuOTEyMjkgLTcuNTkzNzUsLTIuNDY4NzUgbCAtMC4xMjUsMC4wNjI1IC02Mi45MDYyNSwtNDQuNTkzNzUgYyAxOS4zMzM2NSwtMTkuMDExMTUgNDQuMDYyOTEsLTMzLjA2MDM5IDcyLjU2MjUsLTM5LjUzMTI1IDUuMjA1OTksLTEuMTgyMDMgMTAuNDA5NjYsLTIuMDU5MSAxNS41OTM3NSwtMi42ODc1IHogbSAzNi42NTYyNSwwIGMgMzMuMjczNDcsNC4wOTIzMiA2NC4wNDUwMSwxOS4xNTg4MiA4Ny42MjUsNDIuMjUgbCAtNjIuNSw0NC4zMTI1IC0wLjIxODc1LC0wLjA5MzcgYyAtNS41NDc0NSw0LjA1MTY5IC0xMy4zNjM0MywzLjA0NjM5IC0xNy42ODc1LC0yLjM3NSAtMS43NzEzMiwtMi4yMjA5NiAtMi43MDA3MiwtNC44MzIzOSAtMi44MTI1LC03LjQ2ODc1IGwgLTAuMDYyNSwtMC4wMzEyIHogbSAtMTQ3LjYyNSw3MC44NzUgNTcuNDM3NSw1MS4zNzUgLTAuMDYyNSwwLjMxMjUgYyA1LjE4NDM3LDQuNTA2OTcgNS45NDg4OCwxMi4zMjc5NCAxLjYyNSwxNy43NSAtMS43NzEyLDIuMjIxMDUgLTQuMTQyMDgsMy43MTA3NCAtNi42ODc1LDQuNDA2MjUgbCAtMC4wNjI1LDAuMjUgLTczLjYyNSwyMS4yNSBjIC0zLjc0NzI4LC0zNC4yNjUxNyA0LjMyODU1LC02Ny41NzM2NCAyMS4zNzUsLTk1LjM0Mzc1IHogbSAyNTguMTU2MjUsMC4wMzEyIGMgOC41MzQxLDEzLjgzMjU2IDE0Ljk5NjU1LDI5LjI4MjE0IDE4Ljg0Mzc1LDQ2LjAzMTI1IDMuODAxMDYsMTYuNTQ4MjggNC43NTQ5OSwzMy4wNjY5NyAzLjE4NzUsNDkuMDMxMjUgbCAtNzQsLTIxLjMxMjUgLTAuMDYyNSwtMC4zMTI1IGMgLTYuNjI2NSwtMS44MTEwNCAtMTAuNjk4OTMsLTguNTUxNjIgLTkuMTU2MjUsLTE1LjMxMjUgMC42MzIwMywtMi43Njk2MiAyLjEwMjIyLC01LjExMjY0IDQuMDkzNzUsLTYuODQzNzUgbCAtMC4wMzEyLC0wLjE1NjI1IDU3LjEyNSwtNTEuMTI1IHogbSAtMTQwLjY1NjI1LDU1LjMxMjUgMjMuNTMxMjUsMCAxNC42MjUsMTguMjgxMjUgLTUuMjUsMjIuODEyNSAtMjEuMTI1LDEwLjE1NjI1IC0yMS4xODc1LC0xMC4xODc1IC01LjI1LC0yMi44MTI1IHogbSA3NS40Mzc1LDYyLjU2MjUgYyAwLjk5OTk3LC0wLjA1MDUgMS45OTU1OCwwLjAzOTYgMi45Njg3NSwwLjIxODc1IGwgMC4xMjUsLTAuMTU2MjUgNzYuMTU2MjUsMTIuODc1IGMgLTExLjE0NTUsMzEuMzEzMSAtMzIuNDcyODEsNTguNDQwMTggLTYwLjk2ODc1LDc2LjU5Mzc1IGwgLTI5LjU2MjUsLTcxLjQwNjI1IDAuMDkzNywtMC4xMjUgYyAtMi43MTU2MSwtNi4zMDk5OSAwLjAwMiwtMTMuNzA5NTYgNi4yNSwtMTYuNzE4NzUgMS41OTk2NSwtMC43NzA0MSAzLjI3MDg5LC0xLjE5NzAxIDQuOTM3NSwtMS4yODEyNSB6IG0gLTEyNy45MDYyNSwwLjMxMjUgYyA1LjgxMTc0LDAuMDgxNSAxMS4wMjQ2Miw0LjExNTI1IDEyLjM3NSwxMC4wMzEyNSAwLjYzMjE5LDIuNzY5NTggMC4zMjQ1LDUuNTEzNzUgLTAuNzE4NzUsNy45Mzc1IGwgMC4yMTg3NSwwLjI4MTI1IC0yOS4yNSw3MC42ODc1IGMgLTI3LjM0NzE2LC0xNy41NDg2IC00OS4xMjkyNywtNDMuODI0MDMgLTYwLjc4MTI1LC03Ni4wNjI0NSBsIDc1LjUsLTEyLjgxMjUgMC4xMjUsMC4xNTYyNSBjIDAuODQ0NTEsLTAuMTU1NDEgMS43MDEsLTAuMjMwNCAyLjUzMTI1LC0wLjIxODc1IHogbSA2My43ODEyNSwzMC45Njg4IGMgMi4wMjQ0NSwtMC4wNzQ0IDQuMDc4NjUsMC4zNDA5OCA2LjAzMTI1LDEuMjgxMjUgMi41NTk1MSwxLjIzMjUzIDQuNTM2NzMsMy4xNzMxOSA1Ljc4MTI1LDUuNSBsIDAuMjgxMjUsMCAzNy4yMTg3NSw2Ny4yNSBjIC00LjgzMDI5LDEuNjE5MjMgLTkuNzk2MDksMy4wMDMwOCAtMTQuODc1LDQuMTU2MjUgLTI4LjQ2NDUzLDYuNDYyOSAtNTYuODM4NjIsNC41MDQ2NyAtODIuNTMxMjUsLTQuMjUgbCAzNy4xMjUsLTY3LjEyNSAwLjA2MjUsMCBjIDIuMjI3NjcsLTQuMTY0NDEgNi40NTI0NywtNi42NDg4NyAxMC45MDYyNSwtNi44MTI1IHoiIHN0eWxlPSJmb250LXNpemU6bWVkaXVtO2ZvbnQtc3R5bGU6bm9ybWFsO2ZvbnQtdmFyaWFudDpub3JtYWw7Zm9udC1zdHJldGNoOm5vcm1hbDt0ZXh0LWluZGVudDowO3RleHQtYWxpZ246c3RhcnQ7dGV4dC1kZWNvcmF0aW9uOm5vbmU7bGluZS1oZWlnaHQ6bm9ybWFsO2xldHRlci1zcGFjaW5nOm5vcm1hbDt3b3JkLXNwYWNpbmc6bm9ybWFsO3RleHQtdHJhbnNmb3JtOm5vbmU7ZGlyZWN0aW9uOmx0cjtibG9jay1wcm9ncmVzc2lvbjp0Yjt3cml0aW5nLW1vZGU6bHItdGI7dGV4dC1hbmNob3I6c3RhcnQ7YmFzZWxpbmUtc2hpZnQ6YmFzZWxpbmU7ZmlsbDojZmZmZmZmO2ZpbGwtb3BhY2l0eToxO3N0cm9rZTojZmZmZmZmO3N0cm9rZS13aWR0aDowLjI1O3N0cm9rZS1taXRlcmxpbWl0OjQ7c3Ryb2tlLW9wYWNpdHk6MTtzdHJva2UtZGFzaGFycmF5Om5vbmU7bWFya2VyOm5vbmU7dmlzaWJpbGl0eTp2aXNpYmxlO2Rpc3BsYXk6aW5saW5lO2VuYWJsZS1iYWNrZ3JvdW5kOmFjY3VtdWxhdGU7LWlua3NjYXBlLWZvbnQtc3BlY2lmaWNhdGlvbjpTYW5zIiBzb2RpcG9kaTpub2RldHlwZXM9ImNjY2NjY2Njc2NjY2NzY3NzY2NzY2NjY2NjY2NzY2Njc2NjY2NjY2NjY2NjY2Njc2NjY3Njc2Njc2NjY2NzY3Njc2NjY2NjY2Njc2NjY3Njc2NjY2NzY2NjY3Njc2NzY2NjY2NjY2NjY2NjY2Njc2NjY3NjY2NjY2NjY2NjY2NzY2NjY2NzY2NjY2NjY2NjY2NjY2NjY2NjY2NjY2NzY2Njc2NjY2NjY2NjY3NjY2NzY2NjYyIgaW5rc2NhcGU6ZXhwb3J0LWZpbGVuYW1lPSIuL3BhdGgzMDU5LnBuZyIgaW5rc2NhcGU6ZXhwb3J0LXhkcGk9IjI1MC41NSIgaW5rc2NhcGU6ZXhwb3J0LXlkcGk9IjI1MC41NSIvPiYjeGE7ICAgIDwvZz4mI3hhOyAgPC9nPiYjeGE7PC9zdmc+;" parent="1" vertex="1">
          <mxGeometry x="677" y="395" width="31" height="30" as="geometry"/>
        </mxCell>
        <mxCell id="340A8npzHvRlRxg66V1w-26" value="Backend subnet" style="verticalLabelPosition=bottom;html=1;verticalAlign=top;align=center;strokeColor=none;fillColor=#00BEF2;shape=mxgraph.azure.virtual_network;pointerEvents=1;" parent="1" vertex="1">
          <mxGeometry x="731" y="419" width="30" height="18" as="geometry"/>
        </mxCell>
        <mxCell id="340A8npzHvRlRxg66V1w-28" value="" style="shape=image;verticalLabelPosition=bottom;labelBackgroundColor=#ffffff;verticalAlign=top;aspect=fixed;imageAspect=0;image=data:image/svg+xml,PHN2ZyB4bWxuczpkYz0iaHR0cDovL3B1cmwub3JnL2RjL2VsZW1lbnRzLzEuMS8iIHhtbG5zOmNjPSJodHRwOi8vY3JlYXRpdmVjb21tb25zLm9yZy9ucyMiIHhtbG5zOnJkZj0iaHR0cDovL3d3dy53My5vcmcvMTk5OS8wMi8yMi1yZGYtc3ludGF4LW5zIyIgeG1sbnM6c3ZnPSJodHRwOi8vd3d3LnczLm9yZy8yMDAwL3N2ZyIgeG1sbnM9Imh0dHA6Ly93d3cudzMub3JnLzIwMDAvc3ZnIiB4bWxuczpzb2RpcG9kaT0iaHR0cDovL3NvZGlwb2RpLnNvdXJjZWZvcmdlLm5ldC9EVEQvc29kaXBvZGktMC5kdGQiIHhtbG5zOmlua3NjYXBlPSJodHRwOi8vd3d3Lmlua3NjYXBlLm9yZy9uYW1lc3BhY2VzL2lua3NjYXBlIiB2aWV3Qm94PSIwIDE3NC43NTI0IDcyMi44NDU3IDcwMS45NjYzNyIgaWQ9InN2ZzIiIHZlcnNpb249IjEuMSIgc29kaXBvZGk6ZG9jbmFtZT0ibG9nby5zdmciIGlua3NjYXBlOmV4cG9ydC1maWxlbmFtZT0iL2hvbWUvdGhvY2tpbi9zcmMva3ViZXJuZXRlcy9uZXcucG5nIiBpbmtzY2FwZTpleHBvcnQteGRwaT0iNDYwLjk1MDAxIiBpbmtzY2FwZTpleHBvcnQteWRwaT0iNDYwLjk1MDAxIj4mI3hhOyAgPGRlZnMgaWQ9ImRlZnM0Ii8+JiN4YTsgIDxzb2RpcG9kaTpuYW1lZHZpZXcgaWQ9ImJhc2UiIHBhZ2Vjb2xvcj0iI2ZmZmZmZiIgYm9yZGVyY29sb3I9IiM2NjY2NjYiIGJvcmRlcm9wYWNpdHk9IjEuMCIgaW5rc2NhcGU6cGFnZW9wYWNpdHk9IjAuMCIgaW5rc2NhcGU6cGFnZXNoYWRvdz0iMiIgaW5rc2NhcGU6em9vbT0iMTYuMTkwNTA5IiBpbmtzY2FwZTpjeD0iMjc3LjU2ODUxIiBpbmtzY2FwZTpjeT0iMTU3LjU0NDk0IiBpbmtzY2FwZTpkb2N1bWVudC11bml0cz0icHgiIGlua3NjYXBlOmN1cnJlbnQtbGF5ZXI9ImczMDUyIiBzaG93Z3JpZD0iZmFsc2UiIGlua3NjYXBlOndpbmRvdy13aWR0aD0iMTUxOSIgaW5rc2NhcGU6d2luZG93LWhlaWdodD0iODIyIiBpbmtzY2FwZTp3aW5kb3cteD0iNTEiIGlua3NjYXBlOndpbmRvdy15PSIyNSIgaW5rc2NhcGU6d2luZG93LW1heGltaXplZD0iMCIgaW5rc2NhcGU6c25hcC1nbG9iYWw9ImZhbHNlIiBmaXQtbWFyZ2luLXRvcD0iMTAiIGZpdC1tYXJnaW4tbGVmdD0iMTAiIGZpdC1tYXJnaW4tcmlnaHQ9IjEwIiBmaXQtbWFyZ2luLWJvdHRvbT0iMTAiLz4mI3hhOyAgPG1ldGFkYXRhIGlkPSJtZXRhZGF0YTciPiYjeGE7ICAgIDxyZGY6UkRGPiYjeGE7ICAgICAgPGNjOldvcmsgcmRmOmFib3V0PSIiPiYjeGE7ICAgICAgICA8ZGM6Zm9ybWF0PmltYWdlL3N2Zyt4bWw8L2RjOmZvcm1hdD4mI3hhOyAgICAgICAgPGRjOnR5cGUgcmRmOnJlc291cmNlPSJodHRwOi8vcHVybC5vcmcvZGMvZGNtaXR5cGUvU3RpbGxJbWFnZSIvPiYjeGE7ICAgICAgICA8ZGM6dGl0bGUvPiYjeGE7ICAgICAgPC9jYzpXb3JrPiYjeGE7ICAgIDwvcmRmOlJERj4mI3hhOyAgPC9tZXRhZGF0YT4mI3hhOyAgPGcgaW5rc2NhcGU6bGFiZWw9IkxheWVyIDEiIGlua3NjYXBlOmdyb3VwbW9kZT0ibGF5ZXIiIGlkPSJsYXllcjEiIHRyYW5zZm9ybT0idHJhbnNsYXRlKC02LjMyNjA5NDIsLTE3NC43NTI0KSI+JiN4YTsgICAgPGcgaWQ9ImczMDUyIj4mI3hhOyAgICAgIDxwYXRoIHN0eWxlPSJmaWxsOiMzMjZjZTU7ZmlsbC1vcGFjaXR5OjE7c3Ryb2tlOiNmZmZmZmY7c3Ryb2tlLXdpZHRoOjA7c3Ryb2tlLW1pdGVybGltaXQ6NDtzdHJva2Utb3BhY2l0eToxO3N0cm9rZS1kYXNoYXJyYXk6bm9uZSIgZD0ibSAzNjUuMzEyNSwxODQuODEyNSBhIDQ2LjcyNDYyMSw0Ni4zNDIyNDYgMCAwIDAgLTE3LjkwNjI1LDQuNTMxMjUgbCAtMjQ0LjM0Mzc1LDExNi43NSBhIDQ2LjcyNDYyMSw0Ni4zNDIyNDYgMCAwIDAgLTI1LjI4MTI1LDMxLjQzNzUgTCAxNy41LDU5OS43ODEyNSBBIDQ2LjcyNDYyMSw0Ni4zNDIyNDYgMCAwIDAgMjMuODQzNzUsNjM1LjMxMjUgNDYuNzI0NjIxLDQ2LjM0MjI0NiAwIDAgMCAyNi41LDYzOSBsIDE2OS4xMjUsMjEwLjI4MTI1IGEgNDYuNzI0NjIxLDQ2LjM0MjI0NiAwIDAgMCAzNi41MzEyNSwxNy40Mzc1IEwgNTAzLjM3NSw4NjYuNjU2MjUgQSA0Ni43MjQ2MjEsNDYuMzQyMjQ2IDAgMCAwIDUzOS45MDYyNSw4NDkuMjUgTCA3MDguOTY4NzUsNjM4LjkzNzUgQSA0Ni43MjQ2MjEsNDYuMzQyMjQ2IDAgMCAwIDcxOCw1OTkuNzE4NzUgbCAtNjAuMzc1LC0yNjIuMjUgYSA0Ni43MjQ2MjEsNDYuMzQyMjQ2IDAgMCAwIC0yNS4yODEyNSwtMzEuNDM3NSBsIC0yNDQuMzc1LC0xMTYuNjg3NSBBIDQ2LjcyNDYyMSw0Ni4zNDIyNDYgMCAwIDAgMzY1LjMxMjUsMTg0LjgxMjUgeiIgaWQ9InBhdGgzMDU1IiBpbmtzY2FwZTpjb25uZWN0b3ItY3VydmF0dXJlPSIwIiBpbmtzY2FwZTpleHBvcnQtZmlsZW5hbWU9Im5ldy5wbmciIGlua3NjYXBlOmV4cG9ydC14ZHBpPSIyNTAuNTUiIGlua3NjYXBlOmV4cG9ydC15ZHBpPSIyNTAuNTUiLz4mI3hhOyAgICAgIDxwYXRoIGlua3NjYXBlOmNvbm5lY3Rvci1jdXJ2YXR1cmU9IjAiIGlkPSJwYXRoMzA1OSIgZD0ibSAzNjcuNzMzNjYsMjc0LjA1OTYyIGMgLTguMDc2OTYsOC4yZS00IC0xNC42MjU5Niw3LjI3NTkxIC0xNC42MjUsMTYuMjUgMWUtNSwwLjEzNzczIDAuMDI4MiwwLjI2OTM0IDAuMDMxMiwwLjQwNjI1IC0wLjAxMTksMS4yMTkzNiAtMC4wNzA4LDIuNjg4MzYgLTAuMDMxMiwzLjc1IDAuMTkyNjIsNS4xNzYgMS4zMjA5LDkuMTM3NDkgMiwxMy45MDYyNSAxLjIzMDI4LDEwLjIwNjY2IDIuMjYxMTcsMTguNjY3MzYgMS42MjUsMjYuNTMxMjUgLTAuNjE4NjksMi45NjU0IC0yLjgwMjg4LDUuNjc3NDEgLTQuNzUsNy41NjI1IGwgLTAuMzQzNzUsNi4xODc1IGMgLTguNzc2ODIsMC43MjcxNyAtMTcuNjEyMzUsMi4wNTg3NCAtMjYuNDM3NSw0LjA2MjUgLTM3Ljk3NDYxLDguNjIyMTggLTcwLjY3MDA4LDI4LjE4MzA3IC05NS41NjI1LDU0LjU5Mzc1IC0xLjYxNTIyLC0xLjEwMTkzIC00LjQ0MTAzLC0zLjEyOTE0IC01LjI4MTMsLTMuNzUgLTIuNjExMTcsMC4zNTI2MiAtNS4yNTAyMSwxLjE1ODI5IC04LjY4NzUsLTAuODQzNzUgLTYuNTQ0OTEsLTQuNDA1NjMgLTEyLjUwNTg3LC0xMC40ODY5MyAtMTkuNzE4NzUsLTE3LjgxMjUgLTMuMzA0OTgsLTMuNTA0MTkgLTUuNjk4MzIsLTYuODQxMDEgLTkuNjI1LC0xMC4yMTg3NSAtMC44OTE3MiwtMC43NjcwNyAtMi4yNTI1OCwtMS44MDQ1NSAtMy4yNSwtMi41OTM3NSAtMy4wNjk4OCwtMi40NDc1NyAtNi42OTA3LC0zLjcyNDAyIC0xMC4xODc1LC0zLjg0Mzc1IC00LjQ5NTg5LC0wLjE1Mzk0IC04LjgyMzk0LDEuNjAzODUgLTExLjY1NjI1LDUuMTU2MjUgLTUuMDM1MjEsNi4zMTUzOCAtMy40MjMxMiwxNS45NjgwNSAzLjU5Mzc1LDIxLjU2MjUgMC4wNzEyLDAuMDU2NyAwLjE0NzAyLDAuMTAwNzggMC4yMTg3NSwwLjE1NjI1IDAuOTY0MjIsMC43ODE2MiAyLjE0NDk2LDEuNzgzMTMgMy4wMzEyNSwyLjQzNzUgNC4xNjY4NywzLjA3NjU1IDcuOTczMiw0LjY1MTQ1IDEyLjEyNSw3LjA5Mzc1IDguNzQ3LDUuNDAxODEgMTUuOTk4MzcsOS44ODA4NiAyMS43NSwxNS4yODEyNSAyLjI0NjAyLDIuMzk0MTcgMi42Mzg1OCw2LjYxMjkyIDIuOTM3NSw4LjQzNzUgbCA0LjY4NzUsNC4xODc1IGMgLTI1LjA5MzQyLDM3Ljc2MzY4IC0zNi43MDY4Niw4NC40MDk0NiAtMjkuODQzNywxMzEuOTM3NSBsIC02LjEyNSwxLjc4MTI1IGMgLTEuNjE0MywyLjA4NDYxIC0zLjg5NTQxLDUuMzY0NzQgLTYuMjgxMyw2LjM0Mzc1IC03LjUyNTEzLDIuMzcwMjEgLTE1Ljk5NDI0LDMuMjQwNTkgLTI2LjIxODc1LDQuMzEyNSAtNC44MDAzMSwwLjM5OTE1IC04Ljk0MjE4LDAuMTYwOTUgLTE0LjAzMTI1LDEuMTI1IC0xLjEyMDA4LDAuMjEyMTggLTIuNjgwNzIsMC42MTg3NyAtMy45MDYyNSwwLjkwNjI1IC0wLjA0MjYsMC4wMDkgLTAuMDgyNCwwLjAyMTYgLTAuMTI1LDAuMDMxMiAtMC4wNjY4LDAuMDE1NSAtMC4xNTQ1NiwwLjA0NzkgLTAuMjE4NzUsMC4wNjI1IC04LjYyMDE0LDIuMDgyNzkgLTE0LjE1Nzc0LDEwLjAwNiAtMTIuMzc1LDE3LjgxMjUgMS43ODMxNiw3LjgwODMzIDEwLjIwMzE0LDEyLjU1Njc3IDE4Ljg3NSwxMC42ODc1IDAuMDYyNiwtMC4wMTQzIDAuMTUzNSwtMC4wMTY3IDAuMjE4NzUsLTAuMDMxMiAwLjA5NzksLTAuMDIyNCAwLjE4NDA5LC0wLjA2OTkgMC4yODEyNSwtMC4wOTM3IDEuMjA4ODUsLTAuMjY1MzYgMi43MjM3NywtMC41NjA2IDMuNzgxMjUsLTAuODQzNzUgNS4wMDMzNCwtMS4zMzk2MyA4LjYyNjk0LC0zLjMwNzk2IDEzLjEyNSwtNS4wMzEyNSA5LjY3Njk0LC0zLjQ3MDc3IDE3LjY5MTczLC02LjM3MDIyIDI1LjUsLTcuNSAzLjI2MTE4LC0wLjI1NTQyIDYuNjk3MTEsMi4wMTIxNiA4LjQwNjI1LDIuOTY4NzUgbCA2LjM3NSwtMS4wOTM3NSBjIDE0LjY3MDE4LDQ1LjQ4MjgyIDQ1LjQxNDE2LDgyLjI0NTAyIDg0LjM0Mzc1LDEwNS4zMTI1IGwgLTIuNjU2MjUsNi4zNzUgYyAwLjk1NzQyLDIuNDc1NDIgMi4wMTM0MSw1LjgyNDcgMS4zMDAyMiw4LjI2OTMyIC0yLjgzODY4LDcuMzYxMiAtNy43MDA5NywxNS4xMzA5NyAtMTMuMjM3NzIsMjMuNzkzMTggLTIuNjgwODUsNC4wMDE5MiAtNS40MjQ1Myw3LjEwNzYxIC03Ljg0Mzc1LDExLjY4NzUgLTAuNTc4OSwxLjA5NTg5IC0xLjMxNjE4LDIuNzc5MzIgLTEuODc1LDMuOTM3NSAtMy43NTg4NCw4LjA0MjM2IC0xLjAwMTY0LDE3LjMwNTIgNi4yMTg3NSwyMC43ODEyNSA3LjI2NTc1LDMuNDk3ODggMTYuMjg0NDcsLTAuMTkxMzQgMjAuMTg3NSwtOC4yNSAwLjAwNiwtMC4wMTE0IDAuMDI1NywtMC4wMTk4IDAuMDMxMiwtMC4wMzEyIDAuMDA0LC0wLjAwOSAtMC4wMDQsLTAuMDIyNSAwLC0wLjAzMTIgMC41NTU5MywtMS4xNDI1NSAxLjM0MzUzLC0yLjY0NDM3IDEuODEyNSwtMy43MTg3NSAyLjA3MjEzLC00Ljc0NzAyIDIuNzYxNjEsLTguODE1MDYgNC4yMTg3NSwtMTMuNDA2MjUgMy44Njk2MiwtOS43MjAxNCA1Ljk5NTY3LC0xOS45MTkwMyAxMS4zMjI1OCwtMjYuMjc0MTEgMS40NTg2OCwtMS43NDAyMyAzLjgzNjgxLC0yLjQwOTUgNi4zMDI0MiwtMy4wNjk2NCBsIDMuMzEyNSwtNiBjIDMzLjkzODI0LDEzLjAyNjggNzEuOTI2NjYsMTYuNTIyNDYgMTA5Ljg3NSw3LjkwNjI1IDguNjU2OTcsLTEuOTY1NTcgMTcuMDE0NDQsLTQuNTA5NDUgMjUuMDkzNzUsLTcuNTYyNSAwLjkzMDk4LDEuNjUxMzMgMi42NjExMyw0LjgyNTcgMy4xMjUsNS42MjUgMi41MDU1OSwwLjgxNTE4IDUuMjQwNDQsMS4yMzYxNCA3LjQ2ODc1LDQuNTMxMjUgMy45ODUzOSw2LjgwODk4IDYuNzEwOSwxNC44NjQxNiAxMC4wMzEyNSwyNC41OTM3NSAxLjQ1NzM4LDQuNTkxMTEgMi4xNzc2Miw4LjY1OTMzIDQuMjUsMTMuNDA2MjUgMC40NzIzNCwxLjA4MTk1IDEuMjU2LDIuNjA0ODYgMS44MTI1LDMuNzUgMy44OTQ4Miw4LjA4NDg0IDEyLjk0MjEyLDExLjc4NjY3IDIwLjIxODc1LDguMjgxMjUgNy4yMTk1LC0zLjQ3NzkgOS45Nzk3NCwtMTIuNzM5OSA2LjIxODc1LC0yMC43ODEyNSAtMC41NTg4OSwtMS4xNTgxNCAtMS4zMjczLC0yLjg0MTY0IC0xLjkwNjI1LC0zLjkzNzUgLTIuNDE5NDYsLTQuNTc5NzYgLTUuMTYyNywtNy42NTQ0OCAtNy44NDM3NSwtMTEuNjU2MjUgLTUuNTM3MjEsLTguNjYxOTIgLTEwLjEyOTY4LC0xNS44NTc3IC0xMi45Njg3NSwtMjMuMjE4NzUgLTEuMTg3MTEsLTMuNzk2NTcgMC4yMDAyOCwtNi4xNTc3NCAxLjEyNSwtOC42MjUgLTAuNTUzNzgsLTAuNjM0NzcgLTEuNzM4ODEsLTQuMjIwMDkgLTIuNDM3NSwtNS45MDYyNSA0MC40NTc0LC0yMy44ODgxNiA3MC4yOTg1NiwtNjIuMDIxMjkgODQuMzEyNSwtMTA2LjA2MjUgMS44OTI0LDAuMjk3NDIgNS4xODE1NCwwLjg3OTM2IDYuMjUsMS4wOTM3NSAyLjE5OTU0LC0xLjQ1MDcgNC4yMjE5NCwtMy4zNDM1MiA4LjE4NzUsLTMuMDMxMjUgNy44MDgzMiwxLjEyOTM3IDE1LjgyMjg4LDQuMDI5NzMgMjUuNSw3LjUgNC40OTgxNSwxLjcyMzA2IDguMTIxNiwzLjcyMzEzIDEzLjEyNSw1LjA2MjUgMS4wNTc0OSwwLjI4MzA5IDIuNTcyMzgsMC41NDcyIDMuNzgxMjUsMC44MTI1IDAuMDk3MiwwLjAyMzggMC4xODMzLDAuMDcxNCAwLjI4MTI1LDAuMDkzNyAwLjA2NTMsMC4wMTQ2IDAuMTU2MTUsMC4wMTY5IDAuMjE4NzUsMC4wMzEyIDguNjcyMzYsMS44NjY5NSAxNy4wOTM4NCwtMi44Nzg3MSAxOC44NzUsLTEwLjY4NzUgMS43ODA3NCwtNy44MDY5NiAtMy43NTQzLC0xNS43MzIwMSAtMTIuMzc1LC0xNy44MTI1IC0xLjI1MzkzLC0wLjI4NTEzIC0zLjAzMjI1LC0wLjc2OTM4IC00LjI1LC0xIC01LjA4OTEyLC0wLjk2Mzc4IC05LjIzMDkyLC0wLjcyNjEgLTE0LjAzMTI1LC0xLjEyNSAtMTAuMjI0NTYsLTEuMDcxMzggLTE4LjY5MzUsLTEuOTQyNjkgLTI2LjIxODc1LC00LjMxMjUgLTMuMDY4MjYsLTEuMTkwMjggLTUuMjUxMDMsLTQuODQxMjQgLTYuMzEyNTUsLTYuMzQzNzUgbCAtNS45MDYyNSwtMS43MTg3NSBjIDMuMDYyMjYsLTIyLjE1NDQyIDIuMjM2NTUsLTQ1LjIxMTM0IC0zLjA2MjUsLTY4LjI4MTI1IC01LjM0ODM5LC0yMy4yODQ3MSAtMTQuODAwMzcsLTQ0LjU4MDg0IC0yNy40MDYyNSwtNjMuMzQzNzUgMS41MTUwNSwtMS4zNzcyOSA0LjM3NjE5LC0zLjkxMDkxIDUuMTg3NSwtNC42NTYyNSAwLjIzNzE2LC0yLjYyNDE3IDAuMDMzNCwtNS4zNzU1MyAyLjc1LC04LjI4MTI1IDUuNzUxMzQsLTUuNDAwNjkgMTMuMDAzMjksLTkuODc4OTggMjEuNzUsLTE1LjI4MTI1IDQuMTUxNjcsLTIuNDQyNTIgNy45ODk1NCwtNC4wMTY5OCAxMi4xNTYyNSwtNy4wOTM3NSAwLjk0MjI1LC0wLjY5NTc2IDIuMjI4OSwtMS43OTc1OSAzLjIxODc1LC0yLjU5Mzc1IDcuMDE1MzgsLTUuNTk2MzMgOC42MzA1OCwtMTUuMjQ4NDIgMy41OTM3NSwtMjEuNTYyNSAtNS4wMzY4MywtNi4zMTQwOCAtMTQuNzk3MTIsLTYuOTA4ODMgLTIxLjgxMjUsLTEuMzEyNSAtMC45OTg1NiwwLjc5MDg1IC0yLjM1MzUzLDEuODIyNTIgLTMuMjUsMi41OTM3NSAtMy45MjY1LDMuMzc3OTYgLTYuMzUxNDUsNi43MTQzOSAtOS42NTYyNSwxMC4yMTg3NSAtNy4yMTI0OSw3LjMyNTk1IC0xMy4xNzQwNywxMy40Mzc3NyAtMTkuNzE4NzUsMTcuODQzNzUgLTIuODM2MDEsMS42NTEwNiAtNi45ODk5NiwxLjA3OTc4IC04Ljg3NTA1LDAuOTY4NzUgbCAtNS41NjI1LDMuOTY4NzUgYyAtMzEuNzE4OCwtMzMuMjYwNTcgLTc0LjkwNDY2LC01NC41MjU0NiAtMTIxLjQwNjA1LC01OC42NTYzIC0wLjEzMDA2LC0xLjk0ODcyIC0wLjMwMDQ1LC01LjQ3MTE3IC0wLjM0Mzc1LC02LjUzMTI1IC0xLjkwMzcxLC0xLjgyMTY1IC00LjIwMzQyLC0zLjM3Njg2IC00Ljc4MTI1LC03LjMxMjUgLTAuNjM2MTcsLTcuODYzODkgMC40MjU5NywtMTYuMzI0NTkgMS42NTYyNSwtMjYuNTMxMjUgMC42NzkxLC00Ljc2ODc2IDEuODA3MzgsLTguNzMwMjUgMiwtMTMuOTA2MjUgMC4wNDM4LC0xLjE3NjYzIC0wLjAyNjUsLTIuODg0MDEgLTAuMDMxMiwtNC4xNTYyNSAtOS42ZS00LC04Ljk3NDA5IC02LjU0ODA0LC0xNi4yNTA4MiAtMTQuNjI1LC0xNi4yNSB6IG0gLTE4LjMxMjUsMTEzLjQzNzUgLTQuMzQzNzUsNzYuNzE4NzUgLTAuMzEyNSwwLjE1NjI1IGMgLTAuMjkxMzQsNi44NjMzNSAtNS45Mzk5NiwxMi4zNDM3NSAtMTIuODc1LDEyLjM0Mzc1IC0yLjg0MDgxLDAgLTUuNDYyOTQsLTAuOTEyMjkgLTcuNTkzNzUsLTIuNDY4NzUgbCAtMC4xMjUsMC4wNjI1IC02Mi45MDYyNSwtNDQuNTkzNzUgYyAxOS4zMzM2NSwtMTkuMDExMTUgNDQuMDYyOTEsLTMzLjA2MDM5IDcyLjU2MjUsLTM5LjUzMTI1IDUuMjA1OTksLTEuMTgyMDMgMTAuNDA5NjYsLTIuMDU5MSAxNS41OTM3NSwtMi42ODc1IHogbSAzNi42NTYyNSwwIGMgMzMuMjczNDcsNC4wOTIzMiA2NC4wNDUwMSwxOS4xNTg4MiA4Ny42MjUsNDIuMjUgbCAtNjIuNSw0NC4zMTI1IC0wLjIxODc1LC0wLjA5MzcgYyAtNS41NDc0NSw0LjA1MTY5IC0xMy4zNjM0MywzLjA0NjM5IC0xNy42ODc1LC0yLjM3NSAtMS43NzEzMiwtMi4yMjA5NiAtMi43MDA3MiwtNC44MzIzOSAtMi44MTI1LC03LjQ2ODc1IGwgLTAuMDYyNSwtMC4wMzEyIHogbSAtMTQ3LjYyNSw3MC44NzUgNTcuNDM3NSw1MS4zNzUgLTAuMDYyNSwwLjMxMjUgYyA1LjE4NDM3LDQuNTA2OTcgNS45NDg4OCwxMi4zMjc5NCAxLjYyNSwxNy43NSAtMS43NzEyLDIuMjIxMDUgLTQuMTQyMDgsMy43MTA3NCAtNi42ODc1LDQuNDA2MjUgbCAtMC4wNjI1LDAuMjUgLTczLjYyNSwyMS4yNSBjIC0zLjc0NzI4LC0zNC4yNjUxNyA0LjMyODU1LC02Ny41NzM2NCAyMS4zNzUsLTk1LjM0Mzc1IHogbSAyNTguMTU2MjUsMC4wMzEyIGMgOC41MzQxLDEzLjgzMjU2IDE0Ljk5NjU1LDI5LjI4MjE0IDE4Ljg0Mzc1LDQ2LjAzMTI1IDMuODAxMDYsMTYuNTQ4MjggNC43NTQ5OSwzMy4wNjY5NyAzLjE4NzUsNDkuMDMxMjUgbCAtNzQsLTIxLjMxMjUgLTAuMDYyNSwtMC4zMTI1IGMgLTYuNjI2NSwtMS44MTEwNCAtMTAuNjk4OTMsLTguNTUxNjIgLTkuMTU2MjUsLTE1LjMxMjUgMC42MzIwMywtMi43Njk2MiAyLjEwMjIyLC01LjExMjY0IDQuMDkzNzUsLTYuODQzNzUgbCAtMC4wMzEyLC0wLjE1NjI1IDU3LjEyNSwtNTEuMTI1IHogbSAtMTQwLjY1NjI1LDU1LjMxMjUgMjMuNTMxMjUsMCAxNC42MjUsMTguMjgxMjUgLTUuMjUsMjIuODEyNSAtMjEuMTI1LDEwLjE1NjI1IC0yMS4xODc1LC0xMC4xODc1IC01LjI1LC0yMi44MTI1IHogbSA3NS40Mzc1LDYyLjU2MjUgYyAwLjk5OTk3LC0wLjA1MDUgMS45OTU1OCwwLjAzOTYgMi45Njg3NSwwLjIxODc1IGwgMC4xMjUsLTAuMTU2MjUgNzYuMTU2MjUsMTIuODc1IGMgLTExLjE0NTUsMzEuMzEzMSAtMzIuNDcyODEsNTguNDQwMTggLTYwLjk2ODc1LDc2LjU5Mzc1IGwgLTI5LjU2MjUsLTcxLjQwNjI1IDAuMDkzNywtMC4xMjUgYyAtMi43MTU2MSwtNi4zMDk5OSAwLjAwMiwtMTMuNzA5NTYgNi4yNSwtMTYuNzE4NzUgMS41OTk2NSwtMC43NzA0MSAzLjI3MDg5LC0xLjE5NzAxIDQuOTM3NSwtMS4yODEyNSB6IG0gLTEyNy45MDYyNSwwLjMxMjUgYyA1LjgxMTc0LDAuMDgxNSAxMS4wMjQ2Miw0LjExNTI1IDEyLjM3NSwxMC4wMzEyNSAwLjYzMjE5LDIuNzY5NTggMC4zMjQ1LDUuNTEzNzUgLTAuNzE4NzUsNy45Mzc1IGwgMC4yMTg3NSwwLjI4MTI1IC0yOS4yNSw3MC42ODc1IGMgLTI3LjM0NzE2LC0xNy41NDg2IC00OS4xMjkyNywtNDMuODI0MDMgLTYwLjc4MTI1LC03Ni4wNjI0NSBsIDc1LjUsLTEyLjgxMjUgMC4xMjUsMC4xNTYyNSBjIDAuODQ0NTEsLTAuMTU1NDEgMS43MDEsLTAuMjMwNCAyLjUzMTI1LC0wLjIxODc1IHogbSA2My43ODEyNSwzMC45Njg4IGMgMi4wMjQ0NSwtMC4wNzQ0IDQuMDc4NjUsMC4zNDA5OCA2LjAzMTI1LDEuMjgxMjUgMi41NTk1MSwxLjIzMjUzIDQuNTM2NzMsMy4xNzMxOSA1Ljc4MTI1LDUuNSBsIDAuMjgxMjUsMCAzNy4yMTg3NSw2Ny4yNSBjIC00LjgzMDI5LDEuNjE5MjMgLTkuNzk2MDksMy4wMDMwOCAtMTQuODc1LDQuMTU2MjUgLTI4LjQ2NDUzLDYuNDYyOSAtNTYuODM4NjIsNC41MDQ2NyAtODIuNTMxMjUsLTQuMjUgbCAzNy4xMjUsLTY3LjEyNSAwLjA2MjUsMCBjIDIuMjI3NjcsLTQuMTY0NDEgNi40NTI0NywtNi42NDg4NyAxMC45MDYyNSwtNi44MTI1IHoiIHN0eWxlPSJmb250LXNpemU6bWVkaXVtO2ZvbnQtc3R5bGU6bm9ybWFsO2ZvbnQtdmFyaWFudDpub3JtYWw7Zm9udC1zdHJldGNoOm5vcm1hbDt0ZXh0LWluZGVudDowO3RleHQtYWxpZ246c3RhcnQ7dGV4dC1kZWNvcmF0aW9uOm5vbmU7bGluZS1oZWlnaHQ6bm9ybWFsO2xldHRlci1zcGFjaW5nOm5vcm1hbDt3b3JkLXNwYWNpbmc6bm9ybWFsO3RleHQtdHJhbnNmb3JtOm5vbmU7ZGlyZWN0aW9uOmx0cjtibG9jay1wcm9ncmVzc2lvbjp0Yjt3cml0aW5nLW1vZGU6bHItdGI7dGV4dC1hbmNob3I6c3RhcnQ7YmFzZWxpbmUtc2hpZnQ6YmFzZWxpbmU7ZmlsbDojZmZmZmZmO2ZpbGwtb3BhY2l0eToxO3N0cm9rZTojZmZmZmZmO3N0cm9rZS13aWR0aDowLjI1O3N0cm9rZS1taXRlcmxpbWl0OjQ7c3Ryb2tlLW9wYWNpdHk6MTtzdHJva2UtZGFzaGFycmF5Om5vbmU7bWFya2VyOm5vbmU7dmlzaWJpbGl0eTp2aXNpYmxlO2Rpc3BsYXk6aW5saW5lO2VuYWJsZS1iYWNrZ3JvdW5kOmFjY3VtdWxhdGU7LWlua3NjYXBlLWZvbnQtc3BlY2lmaWNhdGlvbjpTYW5zIiBzb2RpcG9kaTpub2RldHlwZXM9ImNjY2NjY2Njc2NjY2NzY3NzY2NzY2NjY2NjY2NzY2Njc2NjY2NjY2NjY2NjY2Njc2NjY3Njc2Njc2NjY2NzY3Njc2NjY2NjY2Njc2NjY3Njc2NjY2NzY2NjY3Njc2NzY2NjY2NjY2NjY2NjY2Njc2NjY3NjY2NjY2NjY2NjY2NzY2NjY2NzY2NjY2NjY2NjY2NjY2NjY2NjY2NjY2NzY2Njc2NjY2NjY2NjY3NjY2NzY2NjYyIgaW5rc2NhcGU6ZXhwb3J0LWZpbGVuYW1lPSIuL3BhdGgzMDU5LnBuZyIgaW5rc2NhcGU6ZXhwb3J0LXhkcGk9IjI1MC41NSIgaW5rc2NhcGU6ZXhwb3J0LXlkcGk9IjI1MC41NSIvPiYjeGE7ICAgIDwvZz4mI3hhOyAgPC9nPiYjeGE7PC9zdmc+;" parent="1" vertex="1">
          <mxGeometry x="715" y="395" width="31" height="30" as="geometry"/>
        </mxCell>
        <mxCell id="340A8npzHvRlRxg66V1w-39" style="edgeStyle=orthogonalEdgeStyle;rounded=0;orthogonalLoop=1;jettySize=auto;html=1;exitX=1;exitY=0.5;exitDx=0;exitDy=0;entryX=0;entryY=0.5;entryDx=0;entryDy=0;startArrow=classic;startFill=1;endArrow=classic;endFill=1;" parent="1" source="340A8npzHvRlRxg66V1w-19" target="340A8npzHvRlRxg66V1w-17" edge="1">
          <mxGeometry relative="1" as="geometry">
            <mxPoint x="767" y="384" as="sourcePoint"/>
            <mxPoint x="858" y="412" as="targetPoint"/>
          </mxGeometry>
        </mxCell>
        <mxCell id="340A8npzHvRlRxg66V1w-42" value="" style="verticalLabelPosition=bottom;html=1;verticalAlign=top;align=center;strokeColor=none;fillColor=#00BEF2;shape=mxgraph.azure.virtual_network;pointerEvents=1;" parent="1" vertex="1">
          <mxGeometry x="761" y="407" width="30" height="18" as="geometry"/>
        </mxCell>
        <mxCell id="340A8npzHvRlRxg66V1w-48" style="edgeStyle=orthogonalEdgeStyle;rounded=0;orthogonalLoop=1;jettySize=auto;html=1;exitX=1;exitY=0.5;exitDx=0;exitDy=0;entryX=0;entryY=0.5;entryDx=0;entryDy=0;startArrow=classic;startFill=1;endArrow=classic;endFill=1;" parent="1" source="340A8npzHvRlRxg66V1w-17" target="340A8npzHvRlRxg66V1w-13" edge="1">
          <mxGeometry relative="1" as="geometry">
            <mxPoint x="297" y="323" as="sourcePoint"/>
            <mxPoint x="351" y="379" as="targetPoint"/>
            <Array as="points">
              <mxPoint x="476" y="369"/>
              <mxPoint x="476" y="371"/>
            </Array>
          </mxGeometry>
        </mxCell>
        <mxCell id="340A8npzHvRlRxg66V1w-49" style="edgeStyle=orthogonalEdgeStyle;rounded=0;orthogonalLoop=1;jettySize=auto;html=1;exitX=1;exitY=0.5;exitDx=0;exitDy=0;startArrow=classic;startFill=1;endArrow=classic;endFill=1;entryX=0;entryY=0.5;entryDx=0;entryDy=0;" parent="1" source="340A8npzHvRlRxg66V1w-13" target="340A8npzHvRlRxg66V1w-25" edge="1">
          <mxGeometry relative="1" as="geometry">
            <mxPoint x="461" y="379" as="sourcePoint"/>
            <mxPoint x="511" y="381" as="targetPoint"/>
            <Array as="points"/>
          </mxGeometry>
        </mxCell>
        <mxCell id="340A8npzHvRlRxg66V1w-51" value="" style="edgeStyle=orthogonalEdgeStyle;rounded=0;orthogonalLoop=1;jettySize=auto;html=1;startArrow=classic;startFill=1;endArrow=classic;endFill=1;" parent="1" target="340A8npzHvRlRxg66V1w-19" edge="1">
          <mxGeometry relative="1" as="geometry">
            <mxPoint x="267" y="241" as="sourcePoint"/>
          </mxGeometry>
        </mxCell>
        <mxCell id="340A8npzHvRlRxg66V1w-55" value="API consumers" style="fontColor=#0066CC;verticalAlign=top;verticalLabelPosition=bottom;labelPosition=center;align=center;html=1;outlineConnect=0;fillColor=#CCCCCC;strokeColor=#6881B3;gradientColor=none;gradientDirection=north;strokeWidth=2;shape=mxgraph.networks.users;dashed=1;dashPattern=1 1;" parent="1" vertex="1">
          <mxGeometry x="240" y="173" width="55" height="40" as="geometry"/>
        </mxCell>
        <mxCell id="340A8npzHvRlRxg66V1w-59" value="API Management" style="shape=image;verticalLabelPosition=bottom;labelBackgroundColor=#ffffff;verticalAlign=top;aspect=fixed;imageAspect=0;image=data:image/svg+xml,PHN2ZyB4bWxucz0iaHR0cDovL3d3dy53My5vcmcvMjAwMC9zdmciIHhtbG5zOnhsaW5rPSJodHRwOi8vd3d3LnczLm9yZy8xOTk5L3hsaW5rIiB2ZXJzaW9uPSIxLjEiIGlkPSJMYXllcl8xIiB4PSIwcHgiIHk9IjBweCIgd2lkdGg9IjUwcHgiIGhlaWdodD0iNTBweCIgdmlld0JveD0iMCAwIDUwIDUwIiBlbmFibGUtYmFja2dyb3VuZD0ibmV3IDAgMCA1MCA1MCIgeG1sOnNwYWNlPSJwcmVzZXJ2ZSI+JiN4YTs8cGF0aCBmaWxsPSIjNTlCNEQ5IiBkPSJNMjAuNSwzMi41aC04LjlsMCwwYy00LjQsMC04LTMuNi04LTguMXMzLjQtOC4xLDgtOC4xYzAuOCwwLDEuNywwLjIsMi43LDAuM2wxLjcsMC41bDAuNS0xLjcgIEMxOC4xLDEwLjIsMjMuMSw3LDI4LjgsN2M2LjksMCwxMi4yLDUuMywxMi4yLDEyLjJjMCwxLjEtMC4yLDIuMi0wLjUsMy4zTDM5LjgsMjVsMi43LTAuM2MwLjIsMCwwLjMsMCwwLjUsMGMyLDAsMy42LDEuNywzLjYsMy42ICBzLTEuNCwzLjMtMy4xLDMuNmMwLDAtOC42LDAtOC45LDBjLTAuMy0yLjUtMS42LTQuNy0zLjMtNi40QzI5LjEsMjMuMywyNi4xLDIyLDIzLDIyYy0yLjIsMC00LjQsMC42LTYuMSwxLjdsMS45LDMgIGMxLjQtMC44LDIuOC0xLjEsNC40LTEuMWMyLjIsMCw0LjQsMC44LDUuOCwyLjVjMS42LDEuNiwyLjUsMy42LDIuNSw1LjhzLTAuOCw0LjQtMi41LDUuOGMtMS42LDEuNy0zLjYsMi41LTUuOCwyLjUgIGMtMS42LDAtMy4xLTAuNS00LjQtMS40bC0xLjksM2MxLjksMS4xLDQuMSwxLjksNi4xLDEuOWMzLjEsMCw2LjEtMS4xLDguMy0zLjRjMS45LTEuOSwzLTQuNCwzLjMtN2MwLjUsMCw5LjEsMCw5LjEsMGgwLjIgIGMzLjYtMC4zLDYuMy0zLjQsNi4zLTcuMmMwLTMtMi44LTUuOC02LjEtNi40YzAuMi0wLjYsMC4yLTAuOSwwLjItMS45YzAtOC44LTYuMi0xNS44LTE2LjEtMTUuOGwwLDBjLTYuMywwLTExLjksMy42LTE0LjIsOS40ICBjLTAuOCwwLTEuNC0wLjMtMi4zLTAuM0M1LjIsMTMsMCwxOCwwLDI0LjRjMCw2LjMsNS4yLDExLjMsMTEuNCwxMS4zaDkuOEwyMC41LDMyLjV6Ii8+JiN4YTs8Y2lyY2xlIGZpbGw9IiM2ODIxN0EiIGN4PSIyMi44IiBjeT0iMzMuOCIgcj0iNS42Ii8+JiN4YTs8L3N2Zz4=;" parent="1" vertex="1">
          <mxGeometry x="537" y="338" width="50" height="50" as="geometry"/>
        </mxCell>
        <mxCell id="340A8npzHvRlRxg66V1w-61" value="" style="shape=image;verticalLabelPosition=bottom;labelBackgroundColor=#ffffff;verticalAlign=top;aspect=fixed;imageAspect=0;image=data:image/svg+xml,PHN2ZyB4bWxucz0iaHR0cDovL3d3dy53My5vcmcvMjAwMC9zdmciIHhtbG5zOnhsaW5rPSJodHRwOi8vd3d3LnczLm9yZy8xOTk5L3hsaW5rIiB2ZXJzaW9uPSIxLjEiIGlkPSJMYXllcl8xIiB4PSIwcHgiIHk9IjBweCIgd2lkdGg9IjUwcHgiIGhlaWdodD0iNTBweCIgdmlld0JveD0iMCAwIDUwIDUwIiBlbmFibGUtYmFja2dyb3VuZD0ibmV3IDAgMCA1MCA1MCIgeG1sOnNwYWNlPSJwcmVzZXJ2ZSI+JiN4YTs8cGF0aCBmaWxsPSIjRkNEMTE2IiBkPSJNNTAsMzcuNTcxYzAsMS45NzMtMS41OTksMy41NzEtMy41NzEsMy41NzFIMy41NzFDMS41OTksNDEuMTQzLDAsMzkuNTQ0LDAsMzcuNTcxdi0zMCAgQzAsNS41OTksMS41OTksNCwzLjU3MSw0aDQyLjg1N0M0OC40MDEsNCw1MCw1LjU5OSw1MCw3LjU3MVYzNy41NzF6Ii8+JiN4YTs8cmVjdCB4PSI0LjI4NiIgeT0iOC4yODYiIGZpbGw9IiNGRkZGRkYiIHdpZHRoPSI0MS40MjkiIGhlaWdodD0iMjguNTcxIi8+JiN4YTs8Y2lyY2xlIGZpbGw9IiNERDU5MDAiIGN4PSIxMi4xNDMiIGN5PSIzMC40MjkiIHI9IjUuNzE0Ii8+JiN4YTs8Y2lyY2xlIGZpbGw9IiNGRjhDMDAiIGN4PSIxMi4xNDMiIGN5PSIzMC40MjkiIHI9IjQuMjg2Ii8+JiN4YTs8cGF0aCBmaWxsPSIjREQ1OTAwIiBkPSJNMTIuMTQzLDM0LjcxNGMtMS42NjIsMC0zLjE3NC0wLjY0LTQuMzE3LTEuNjc5TDcuMTQ4LDQ2LjA2Nmw0LjkyMy00LjkyM2w1LDVsMC4wNzItMC43MTRMMTYuNDYsMzMuMDM1ICBDMTUuMzE3LDM0LjA3NSwxMy44MDUsMzQuNzE0LDEyLjE0MywzNC43MTR6Ii8+JiN4YTs8cGF0aCBmaWxsPSIjN0E3QTdBIiBkPSJNNDAuOTYyLDI5LjA4NWMwLDAuNDQxLTAuMzU4LDAuNzk5LTAuNzk5LDAuNzk5SDIyLjIyN2MtMC40NDEsMC0wLjc5OS0wLjM1OC0wLjc5OS0wLjc5OSAgYzAtMC40NDEsMC4zNTgtMC43OTksMC43OTktMC43OTloMTcuOTM2QzQwLjYwNCwyOC4yODYsNDAuOTYyLDI4LjY0NCw0MC45NjIsMjkuMDg1Ii8+JiN4YTs8cGF0aCBmaWxsPSIjN0E3QTdBIiBkPSJNNDAuOTYyLDI0LjcxNGMwLDAuNDQxLTAuMzU4LDAuNzk5LTAuNzk5LDAuNzk5SDIyLjIyN2MtMC40NDEsMC0wLjc5OS0wLjM1OC0wLjc5OS0wLjc5OSAgYzAtMC40NDEsMC4zNTgtMC43OTksMC43OTktMC43OTloMTcuOTM2QzQwLjYwNCwyMy45MTUsNDAuOTYyLDI0LjI3Myw0MC45NjIsMjQuNzE0Ii8+JiN4YTs8cGF0aCBmaWxsPSIjN0E3QTdBIiBkPSJNNDAuOTYyLDE4LjI4NmMwLDAuNDQxLTAuMzU4LDAuNzk5LTAuNzk5LDAuNzk5SDEwLjA4NGMtMC40NDEsMC0wLjc5OS0wLjM1OC0wLjc5OS0wLjc5OSAgYzAtMC40NDEsMC4zNTgtMC43OTksMC43OTktMC43OTloMzAuMDc4QzQwLjYwNCwxNy40ODYsNDAuOTYyLDE3Ljg0NCw0MC45NjIsMTguMjg2Ii8+JiN4YTs8L3N2Zz4=;" parent="1" vertex="1">
          <mxGeometry x="490" y="258" width="30" height="30" as="geometry"/>
        </mxCell>
        <mxCell id="340A8npzHvRlRxg66V1w-62" value="" style="shape=image;verticalLabelPosition=bottom;labelBackgroundColor=#ffffff;verticalAlign=top;aspect=fixed;imageAspect=0;image=data:image/svg+xml,PHN2ZyB4bWxucz0iaHR0cDovL3d3dy53My5vcmcvMjAwMC9zdmciIHhtbG5zOnhsaW5rPSJodHRwOi8vd3d3LnczLm9yZy8xOTk5L3hsaW5rIiB4bWxuczpzdmc9Imh0dHA6Ly93d3cudzMub3JnLzIwMDAvc3ZnIiBjbGFzcz0iIiBpZD0iRnhTeW1ib2wwLTA0OCIgcm9sZT0icHJlc2VudGF0aW9uIiB2aWV3Qm94PSIwIDAgMjQgMjQiIGZvY3VzYWJsZT0iZmFsc2UiPiYjeGE7PGc+JiN4YTs8dGl0bGUvPiYjeGE7PHBhdGggY2xhc3M9Im1zcG9ydGFsZngtc3ZnLWMxMSIgZmlsbD0iI2ZjZDExNiIgZD0iTSAxMS41IDEgQyA4LjUgMSA2IDMuNSA2IDYuNSBDIDYgOSA3LjYgMTEgOS43IDExLjcgTCA4LjUgMTMgbCAxLjUgMS4zIGwgLTEuNSAxLjQgTCAxMCAxNyBsIC0xLjUgMS41IGwgMyAyLjggbCAyLjUgLTIuNiB2IC03LjMgYyAxLjggLTEgMyAtMi44IDMgLTUgYyAwIC0zIC0yLjUgLTUuNCAtNS41IC01LjQgWiBtIDEgNCBzIC0wLjIgMCAtMC4zIDAuMiBzIC0wLjIgMC4yIC0wLjMgMC4yIEggMTEgbCAtMC4yIC0wLjIgbCAtMC4yIC0wLjMgViA0IGwgMC4yIC0wLjIgbCAwLjMgLTAuMiBoIDAuOSBsIDAuMiAwLjIgbCAwLjIgMC4zIFYgNSBaIi8+JiN4YTs8cGF0aCBjbGFzcz0ibXNwb3J0YWxmeC1zdmctYzEwIiBvcGFjaXR5PSIwLjQiIGZpbGw9IiNmZjhjMDAiIGQ9Ik0gMTIgMTIgdiA3LjIgbCAxIC0xIHYgLTYuNCBhIDUuNSA1LjUgMCAwIDEgLTEgMC4yIFoiLz4mI3hhOzxwYXRoIGNsYXNzPSJtc3BvcnRhbGZ4LXN2Zy1jMDEiIG9wYWNpdHk9IjAuNCIgZmlsbD0iI2ZmZmZmZiIgZD0iTSAxMS41IDEwIEEgMy41IDMuNSAwIDAgMCAxNSA3IEggOCBhIDMuNSAzLjUgMCAwIDAgMy41IDMgWiIvPiYjeGE7PHBhdGggY2xhc3M9Im1zcG9ydGFsZngtc3ZnLWMxNCIgZmlsbD0iIzdmYmEwMCIgZD0iTSAxNy40IDMuOCBjIDAuMyAwLjYgMC40IDEgMC41IDEuNyBhIDkuNSA5LjUgMCAwIDEgMyA3IGMgMCA1LjIgLTQuMyA5LjUgLTkuNSA5LjUgUyAyIDE3LjcgMiAxMi41IGEgOS41IDkuNSAwIDAgMSAzIC03IGwgMC42IC0xLjcgQSAxMC41IDEwLjUgMCAwIDAgMSAxMi41IEMgMSAxOC4zIDUuNyAyMyAxMS41IDIzIFMgMjIgMTguMyAyMiAxMi41IGMgMCAtMy42IC0xLjggLTYuOCAtNC42IC04LjcgWiIvPiYjeGE7PC9nPiYjeGE7PC9zdmc+;" parent="1" vertex="1">
          <mxGeometry x="506.5" y="201" width="34" height="34" as="geometry"/>
        </mxCell>
        <mxCell id="340A8npzHvRlRxg66V1w-64" value="" style="shape=image;verticalLabelPosition=bottom;labelBackgroundColor=#ffffff;verticalAlign=top;aspect=fixed;imageAspect=0;image=data:image/svg+xml,PHN2ZyB4bWxucz0iaHR0cDovL3d3dy53My5vcmcvMjAwMC9zdmciIHhtbG5zOnhsaW5rPSJodHRwOi8vd3d3LnczLm9yZy8xOTk5L3hsaW5rIiB2ZXJzaW9uPSIxLjEiIGlkPSJMYXllcl8xIiB4PSIwcHgiIHk9IjBweCIgd2lkdGg9IjUwcHgiIGhlaWdodD0iNTBweCIgdmlld0JveD0iMCAwIDUwIDUwIiBlbmFibGUtYmFja2dyb3VuZD0ibmV3IDAgMCA1MCA1MCIgeG1sOnNwYWNlPSJwcmVzZXJ2ZSI+JiN4YTs8cGF0aCBmaWxsPSIjRkNEMTE2IiBkPSJNNTAsMzcuNTcxYzAsMS45NzMtMS41OTksMy41NzEtMy41NzEsMy41NzFIMy41NzFDMS41OTksNDEuMTQzLDAsMzkuNTQ0LDAsMzcuNTcxdi0zMCAgQzAsNS41OTksMS41OTksNCwzLjU3MSw0aDQyLjg1N0M0OC40MDEsNCw1MCw1LjU5OSw1MCw3LjU3MVYzNy41NzF6Ii8+JiN4YTs8cmVjdCB4PSI0LjI4NiIgeT0iOC4yODYiIGZpbGw9IiNGRkZGRkYiIHdpZHRoPSI0MS40MjkiIGhlaWdodD0iMjguNTcxIi8+JiN4YTs8Y2lyY2xlIGZpbGw9IiNERDU5MDAiIGN4PSIxMi4xNDMiIGN5PSIzMC40MjkiIHI9IjUuNzE0Ii8+JiN4YTs8Y2lyY2xlIGZpbGw9IiNGRjhDMDAiIGN4PSIxMi4xNDMiIGN5PSIzMC40MjkiIHI9IjQuMjg2Ii8+JiN4YTs8cGF0aCBmaWxsPSIjREQ1OTAwIiBkPSJNMTIuMTQzLDM0LjcxNGMtMS42NjIsMC0zLjE3NC0wLjY0LTQuMzE3LTEuNjc5TDcuMTQ4LDQ2LjA2Nmw0LjkyMy00LjkyM2w1LDVsMC4wNzItMC43MTRMMTYuNDYsMzMuMDM1ICBDMTUuMzE3LDM0LjA3NSwxMy44MDUsMzQuNzE0LDEyLjE0MywzNC43MTR6Ii8+JiN4YTs8cGF0aCBmaWxsPSIjN0E3QTdBIiBkPSJNNDAuOTYyLDI5LjA4NWMwLDAuNDQxLTAuMzU4LDAuNzk5LTAuNzk5LDAuNzk5SDIyLjIyN2MtMC40NDEsMC0wLjc5OS0wLjM1OC0wLjc5OS0wLjc5OSAgYzAtMC40NDEsMC4zNTgtMC43OTksMC43OTktMC43OTloMTcuOTM2QzQwLjYwNCwyOC4yODYsNDAuOTYyLDI4LjY0NCw0MC45NjIsMjkuMDg1Ii8+JiN4YTs8cGF0aCBmaWxsPSIjN0E3QTdBIiBkPSJNNDAuOTYyLDI0LjcxNGMwLDAuNDQxLTAuMzU4LDAuNzk5LTAuNzk5LDAuNzk5SDIyLjIyN2MtMC40NDEsMC0wLjc5OS0wLjM1OC0wLjc5OS0wLjc5OSAgYzAtMC40NDEsMC4zNTgtMC43OTksMC43OTktMC43OTloMTcuOTM2QzQwLjYwNCwyMy45MTUsNDAuOTYyLDI0LjI3Myw0MC45NjIsMjQuNzE0Ii8+JiN4YTs8cGF0aCBmaWxsPSIjN0E3QTdBIiBkPSJNNDAuOTYyLDE4LjI4NmMwLDAuNDQxLTAuMzU4LDAuNzk5LTAuNzk5LDAuNzk5SDEwLjA4NGMtMC40NDEsMC0wLjc5OS0wLjM1OC0wLjc5OS0wLjc5OSAgYzAtMC40NDEsMC4zNTgtMC43OTksMC43OTktMC43OTloMzAuMDc4QzQwLjYwNCwxNy40ODYsNDAuOTYyLDE3Ljg0NCw0MC45NjIsMTguMjg2Ii8+JiN4YTs8L3N2Zz4=;" parent="1" vertex="1">
          <mxGeometry x="526" y="258" width="30" height="30" as="geometry"/>
        </mxCell>
        <mxCell id="340A8npzHvRlRxg66V1w-67" value="Firewall" style="shape=image;verticalLabelPosition=bottom;labelBackgroundColor=#ffffff;verticalAlign=top;aspect=fixed;imageAspect=0;image=data:image/svg+xml,PHN2ZyB4bWxucz0iaHR0cDovL3d3dy53My5vcmcvMjAwMC9zdmciIHhtbG5zOnhsaW5rPSJodHRwOi8vd3d3LnczLm9yZy8xOTk5L3hsaW5rIiB4bWxuczpzdmc9Imh0dHA6Ly93d3cudzMub3JnLzIwMDAvc3ZnIiBjbGFzcz0iZnhzLXBvcnRhbC1zdmciIGlkPSJGeFN5bWJvbDAtMDc1IiByb2xlPSJwcmVzZW50YXRpb24iIHZpZXdCb3g9IjAgMCA1MCA1MCIgZm9jdXNhYmxlPSJmYWxzZSI+JiN4YTs8Zz4mI3hhOzx0aXRsZS8+JiN4YTs8cGF0aCBjbGFzcz0ibXNwb3J0YWxmeC1zdmctYzE1IiBmaWxsPSIjNTliNGQ5IiBkPSJNIDE5LjUgMTAuMSBjIDAuOSAtNS43IDUuOCAtMTAgMTEuOCAtMTAgYyA2LjYgMCAxMS45IDUuNCAxMS45IDEyIGMgMCAwLjggLTAuMSAxLjUgLTAuMiAyLjIgYyAzLjkgMC40IDYuOSA0IDYuOSA4LjMgYyAwIDQuNiAtMy41IDguNCAtNy43IDguNCBoIC0yMiBDIDE0LjYgMzEgMTAgMjYuMiAxMCAyMC40IGMgMC4xIC01LjQgNC4zIC05LjggOS41IC0xMC4zIFoiLz4mI3hhOzxwYXRoIGNsYXNzPSJtc3BvcnRhbGZ4LXN2Zy1jMDMiIGZpbGw9IiNhMGExYTIiIGQ9Ik0gNDEgMjIgYyAwIC0xLjEgLTAuOSAtMiAtMiAtMiBIIDI4IGMgLTAuMzY1IDAgLTAuNzA0IDAuMTA2IC0xIDAuMjc5IEEgMS45NzUgMS45NzUgMCAwIDAgMjYgMjAgSCAxNSBjIC0wLjM2NSAwIC0wLjcwNCAwLjEwNiAtMSAwLjI3OSBBIDEuOTc1IDEuOTc1IDAgMCAwIDEzIDIwIEggMiBjIC0xLjEgMCAtMiAwLjkgLTIgMiB2IDUgYyAwIDAuMzY1IDAuMTA2IDAuNzA0IDAuMjc5IDEgQSAxLjk3NSAxLjk3NSAwIDAgMCAwIDI5IHYgNSBjIDAgMC4zNjUgMC4xMDYgMC43MDQgMC4yNzkgMSBBIDEuOTc1IDEuOTc1IDAgMCAwIDAgMzYgdiA1IGMgMCAwLjM2NSAwLjEwNiAwLjcwNCAwLjI3OSAxIEEgMS45NzUgMS45NzUgMCAwIDAgMCA0MyB2IDUgYyAwIDEuMSAwLjkgMiAyIDIgaCAxMSBjIDAuMzY1IDAgMC43MDQgLTAuMTA2IDEgLTAuMjc5IGMgMC4yOTYgMC4xNzMgMC42MzUgMC4yNzkgMSAwLjI3OSBoIDExIGMgMC4zNjUgMCAwLjcwNCAtMC4xMDYgMSAtMC4yNzkgYyAwLjI5NiAwLjE3MyAwLjYzNSAwLjI3OSAxIDAuMjc5IGggMTEgYyAxLjEgMCAyIC0wLjkgMiAtMiB2IC01IGMgMCAtMC4zNjUgLTAuMTA2IC0wLjcwNCAtMC4yNzkgLTEgYyAwLjE3MyAtMC4yOTYgMC4yNzkgLTAuNjM1IDAuMjc5IC0xIHYgLTUgYyAwIC0wLjM2NSAtMC4xMDYgLTAuNzA0IC0wLjI3OSAtMSBjIDAuMTczIC0wLjI5NiAwLjI3OSAtMC42MzUgMC4yNzkgLTEgdiAtNSBjIDAgLTAuMzY1IC0wLjEwNiAtMC43MDQgLTAuMjc5IC0xIGMgMC4xNzMgLTAuMjk2IDAuMjc5IC0wLjYzNSAwLjI3OSAtMSB2IC01IFoiLz4mI3hhOzxwYXRoIGNsYXNzPSJtc3BvcnRhbGZ4LXN2Zy1jMDkiIGZpbGw9IiNkZDU5MDAiIGQ9Ik0gMTUgMjIgaCAxMSB2IDUgSCAxNSBaIi8+JiN4YTs8cGF0aCBjbGFzcz0ibXNwb3J0YWxmeC1zdmctYzA4IiBmaWxsPSIjYmExNDFhIiBkPSJNIDI4IDIyIGggMTEgdiA1IEggMjggWiBNIDIgMjIgaCAxMSB2IDUgSCAyIFogbSAxMyA3IGggMTEgdiA1IEggMTUgWiIvPiYjeGE7PHBhdGggY2xhc3M9Im1zcG9ydGFsZngtc3ZnLWMwOSIgZmlsbD0iI2RkNTkwMCIgZD0iTSAyIDM2IGggMTEgdiA1IEggMiBaIi8+JiN4YTs8cGF0aCBjbGFzcz0ibXNwb3J0YWxmeC1zdmctYzA4IiBmaWxsPSIjYmExNDFhIiBkPSJNIDIgMjkgaCAxMSB2IDUgSCAyIFogbSAxMyAxNCBoIDExIHYgNSBIIDE1IFogbSAxMyAtNyBoIDExIHYgNSBIIDI4IFogbSAwIC03IGggMTEgdiA1IEggMjggWiBtIC0xMyA3IGggMTEgdiA1IEggMTUgWiIvPiYjeGE7PHBhdGggY2xhc3M9Im1zcG9ydGFsZngtc3ZnLWMwOSIgZmlsbD0iI2RkNTkwMCIgZD0iTSAyOCA0MyBoIDExIHYgNSBIIDI4IFoiLz4mI3hhOzxwYXRoIGNsYXNzPSJtc3BvcnRhbGZ4LXN2Zy1jMDgiIGZpbGw9IiNiYTE0MWEiIGQ9Ik0gMiA0MyBoIDExIHYgNSBIIDIgWiIvPiYjeGE7PC9nPiYjeGE7PC9zdmc+;fontSize=10;strokeWidth=6;" parent="1" vertex="1">
          <mxGeometry x="360.5" y="351" width="20" height="20" as="geometry"/>
        </mxCell>
        <mxCell id="340A8npzHvRlRxg66V1w-68" value="&lt;font size=&quot;1&quot;&gt;Rules&lt;/font&gt;" style="verticalLabelPosition=bottom;html=1;verticalAlign=top;align=center;strokeColor=none;fillColor=#00BEF2;shape=mxgraph.azure.wadcfg_diagnostics_file;pointerEvents=1;dashed=1;dashPattern=1 4;fontSize=10;" parent="1" vertex="1">
          <mxGeometry x="405.5" y="355" width="17" height="16" as="geometry"/>
        </mxCell>
        <mxCell id="340A8npzHvRlRxg66V1w-79" style="edgeStyle=orthogonalEdgeStyle;rounded=0;orthogonalLoop=1;jettySize=auto;html=1;exitX=0;exitY=0.5;exitDx=0;exitDy=0;exitPerimeter=0;entryX=0;entryY=0.5;entryDx=0;entryDy=0;dashed=1;startArrow=classic;startFill=1;endArrow=none;endFill=0;fontSize=11;dashPattern=1 2;" parent="1" source="340A8npzHvRlRxg66V1w-69" target="340A8npzHvRlRxg66V1w-61" edge="1">
          <mxGeometry relative="1" as="geometry">
            <Array as="points">
              <mxPoint x="350" y="425"/>
              <mxPoint x="350" y="273"/>
            </Array>
          </mxGeometry>
        </mxCell>
        <mxCell id="340A8npzHvRlRxg66V1w-69" value="Listener" style="verticalLabelPosition=bottom;html=1;verticalAlign=top;align=center;strokeColor=none;fillColor=#00BEF2;shape=mxgraph.azure.wadcfg_diagnostics_file;pointerEvents=1;dashed=1;dashPattern=1 4;fontSize=10;" parent="1" vertex="1">
          <mxGeometry x="360" y="417" width="20" height="16" as="geometry"/>
        </mxCell>
        <mxCell id="340A8npzHvRlRxg66V1w-74" value="&lt;font style=&quot;font-size: 9px&quot;&gt;probe&lt;/font&gt;" style="text;html=1;strokeColor=none;fillColor=none;align=center;verticalAlign=middle;whiteSpace=wrap;rounded=0;dashed=1;dashPattern=1 4;fontSize=11;" parent="1" vertex="1">
          <mxGeometry x="391" y="436" width="40" height="20" as="geometry"/>
        </mxCell>
        <mxCell id="340A8npzHvRlRxg66V1w-75" value="&lt;span style=&quot;font-size: 7px&quot;&gt;APIM cert&lt;/span&gt;" style="text;html=1;strokeColor=none;fillColor=none;align=center;verticalAlign=middle;whiteSpace=wrap;rounded=0;dashed=1;dashPattern=1 4;fontSize=11;" parent="1" vertex="1">
          <mxGeometry x="380" y="253" width="40" height="20" as="geometry"/>
        </mxCell>
        <mxCell id="340A8npzHvRlRxg66V1w-80" value="Secure Tunnel" style="text;html=1;strokeColor=none;fillColor=none;align=center;verticalAlign=middle;whiteSpace=wrap;rounded=0;dashed=1;dashPattern=1 4;fontSize=11;" parent="1" vertex="1">
          <mxGeometry x="860" y="389" width="80" height="20" as="geometry"/>
        </mxCell>
      </root>
    </mxGraphModel>
  </diagram>
</mxfile>
